<mxfile host="Electron" modified="2024-05-14T14:48:28.655Z" agent="Mozilla/5.0 (Windows NT 10.0; Win64; x64) AppleWebKit/537.36 (KHTML, like Gecko) draw.io/24.4.0 Chrome/120.0.6099.109 Electron/28.1.0 Safari/537.36" etag="qr9-vyKOvC7OTb0rgUJR" version="24.4.0" type="device">
  <diagram name="Seite-1" id="m0h1aN39G8AZHkdALgBp">
    <mxGraphModel dx="3775" dy="1686" grid="0" gridSize="10" guides="1" tooltips="1" connect="1" arrows="1" fold="1" page="0" pageScale="1" pageWidth="827" pageHeight="1169" math="0" shadow="0">
      <root>
        <mxCell id="0" />
        <mxCell id="1" parent="0" />
        <mxCell id="jCmX0eoJcbNPCjecA22x-82" value="" style="whiteSpace=wrap;html=1;fontFamily=Architects Daughter;fontSource=https%3A%2F%2Ffonts.googleapis.com%2Fcss%3Ffamily%3DArchitects%2BDaughter;fillColor=#f5f5f5;fontColor=#333333;strokeColor=#666666;movable=0;resizable=0;rotatable=0;deletable=0;editable=0;locked=1;connectable=0;" parent="1" vertex="1">
          <mxGeometry x="-680" y="675" width="2023" height="547" as="geometry" />
        </mxCell>
        <mxCell id="jCmX0eoJcbNPCjecA22x-137" value="" style="edgeStyle=none;orthogonalLoop=1;jettySize=auto;html=1;rounded=0;fontFamily=Architects Daughter;fontSource=https%3A%2F%2Ffonts.googleapis.com%2Fcss%3Ffamily%3DArchitects%2BDaughter;fontSize=16;startSize=14;endArrow=open;endSize=14;sourcePerimeterSpacing=8;targetPerimeterSpacing=8;curved=1;strokeWidth=5;" parent="1" edge="1">
          <mxGeometry width="140" relative="1" as="geometry">
            <mxPoint x="-596" y="1121" as="sourcePoint" />
            <mxPoint x="1048" y="1121" as="targetPoint" />
            <Array as="points" />
          </mxGeometry>
        </mxCell>
        <mxCell id="jCmX0eoJcbNPCjecA22x-1" value="" style="whiteSpace=wrap;html=1;fontFamily=Architects Daughter;fontSource=https%3A%2F%2Ffonts.googleapis.com%2Fcss%3Ffamily%3DArchitects%2BDaughter;fillColor=#f5f5f5;fontColor=#333333;strokeColor=#666666;" parent="1" vertex="1">
          <mxGeometry x="-737" y="-18" width="2023" height="547" as="geometry" />
        </mxCell>
        <mxCell id="jCmX0eoJcbNPCjecA22x-6" value="" style="rounded=0;whiteSpace=wrap;html=1;fontFamily=Architects Daughter;fontSource=https%3A%2F%2Ffonts.googleapis.com%2Fcss%3Ffamily%3DArchitects%2BDaughter;" parent="1" vertex="1">
          <mxGeometry x="191" y="9" width="489" height="354" as="geometry" />
        </mxCell>
        <mxCell id="jCmX0eoJcbNPCjecA22x-10" value="&lt;div&gt;&lt;font face=&quot;Tahoma&quot;&gt;Station 2&lt;/font&gt;&lt;/div&gt;" style="text;html=1;align=center;verticalAlign=middle;resizable=0;points=[];autosize=1;strokeColor=none;fillColor=none;fontSize=20;fontFamily=Architects Daughter;fontSource=https%3A%2F%2Ffonts.googleapis.com%2Fcss%3Ffamily%3DArchitects%2BDaughter;" parent="1" vertex="1">
          <mxGeometry x="387" y="17" width="97" height="38" as="geometry" />
        </mxCell>
        <mxCell id="jCmX0eoJcbNPCjecA22x-12" value="" style="rounded=0;whiteSpace=wrap;html=1;fontFamily=Architects Daughter;fontSource=https%3A%2F%2Ffonts.googleapis.com%2Fcss%3Ffamily%3DArchitects%2BDaughter;" parent="1" vertex="1">
          <mxGeometry x="-352" y="9" width="489" height="354" as="geometry" />
        </mxCell>
        <mxCell id="jCmX0eoJcbNPCjecA22x-13" value="&lt;font face=&quot;Tahoma&quot;&gt;Station 1&lt;br&gt;&lt;/font&gt;" style="text;html=1;align=center;verticalAlign=middle;resizable=0;points=[];autosize=1;strokeColor=none;fillColor=none;fontSize=20;fontFamily=Architects Daughter;fontSource=https%3A%2F%2Ffonts.googleapis.com%2Fcss%3Ffamily%3DArchitects%2BDaughter;" parent="1" vertex="1">
          <mxGeometry x="-156" y="17" width="97" height="38" as="geometry" />
        </mxCell>
        <mxCell id="jCmX0eoJcbNPCjecA22x-14" value="" style="rounded=0;whiteSpace=wrap;html=1;fontFamily=Architects Daughter;fontSource=https%3A%2F%2Ffonts.googleapis.com%2Fcss%3Ffamily%3DArchitects%2BDaughter;" parent="1" vertex="1">
          <mxGeometry x="739" y="9" width="489" height="354" as="geometry" />
        </mxCell>
        <mxCell id="jCmX0eoJcbNPCjecA22x-15" value="&lt;div&gt;&lt;font face=&quot;Tahoma&quot;&gt;Station 3&lt;/font&gt;&lt;/div&gt;" style="text;html=1;align=center;verticalAlign=middle;resizable=0;points=[];autosize=1;strokeColor=none;fillColor=none;fontSize=20;fontFamily=Architects Daughter;fontSource=https%3A%2F%2Ffonts.googleapis.com%2Fcss%3Ffamily%3DArchitects%2BDaughter;" parent="1" vertex="1">
          <mxGeometry x="935" y="17" width="97" height="38" as="geometry" />
        </mxCell>
        <mxCell id="jCmX0eoJcbNPCjecA22x-17" value="" style="edgeStyle=none;orthogonalLoop=1;jettySize=auto;html=1;rounded=0;fontFamily=Architects Daughter;fontSource=https%3A%2F%2Ffonts.googleapis.com%2Fcss%3Ffamily%3DArchitects%2BDaughter;fontSize=16;startSize=14;endArrow=none;endSize=14;sourcePerimeterSpacing=8;targetPerimeterSpacing=8;curved=1;endFill=0;" parent="1" edge="1">
          <mxGeometry width="140" relative="1" as="geometry">
            <mxPoint x="-807" y="260" as="sourcePoint" />
            <mxPoint x="1313" y="260" as="targetPoint" />
            <Array as="points" />
          </mxGeometry>
        </mxCell>
        <mxCell id="jCmX0eoJcbNPCjecA22x-18" value="&lt;font face=&quot;Tahoma&quot;&gt;Overdue Packages&lt;br&gt;&lt;/font&gt;" style="text;html=1;align=center;verticalAlign=middle;resizable=0;points=[];autosize=1;strokeColor=#d6b656;fillColor=#fff2cc;fontSize=20;fontFamily=Architects Daughter;fontSource=https%3A%2F%2Ffonts.googleapis.com%2Fcss%3Ffamily%3DArchitects%2BDaughter;" parent="1" vertex="1">
          <mxGeometry x="-632" y="269" width="180" height="38" as="geometry" />
        </mxCell>
        <mxCell id="jCmX0eoJcbNPCjecA22x-19" value="&lt;font face=&quot;Tahoma&quot;&gt;Problematic Packages&lt;br&gt;&lt;/font&gt;" style="text;html=1;align=center;verticalAlign=middle;resizable=0;points=[];autosize=1;strokeColor=#b85450;fillColor=#f8cecc;fontSize=20;fontFamily=Architects Daughter;fontSource=https%3A%2F%2Ffonts.googleapis.com%2Fcss%3Ffamily%3DArchitects%2BDaughter;" parent="1" vertex="1">
          <mxGeometry x="-646" y="316" width="208" height="38" as="geometry" />
        </mxCell>
        <mxCell id="jCmX0eoJcbNPCjecA22x-21" value="&lt;font face=&quot;Tahoma&quot;&gt;0&lt;/font&gt;" style="text;html=1;align=center;verticalAlign=middle;resizable=0;points=[];autosize=1;strokeColor=#d6b656;fillColor=#fff2cc;fontSize=20;fontFamily=Architects Daughter;fontSource=https%3A%2F%2Ffonts.googleapis.com%2Fcss%3Ffamily%3DArchitects%2BDaughter;" parent="1" vertex="1">
          <mxGeometry x="-122" y="269" width="29" height="38" as="geometry" />
        </mxCell>
        <mxCell id="jCmX0eoJcbNPCjecA22x-22" value="&lt;font face=&quot;Tahoma&quot;&gt;0&lt;/font&gt;" style="text;html=1;align=center;verticalAlign=middle;resizable=0;points=[];autosize=1;strokeColor=#b85450;fillColor=#f8cecc;fontSize=20;fontFamily=Architects Daughter;fontSource=https%3A%2F%2Ffonts.googleapis.com%2Fcss%3Ffamily%3DArchitects%2BDaughter;" parent="1" vertex="1">
          <mxGeometry x="-122" y="316" width="29" height="38" as="geometry" />
        </mxCell>
        <mxCell id="jCmX0eoJcbNPCjecA22x-23" value="&lt;font face=&quot;Tahoma&quot;&gt;0&lt;/font&gt;" style="text;html=1;align=center;verticalAlign=middle;resizable=0;points=[];autosize=1;strokeColor=#d6b656;fillColor=#fff2cc;fontSize=20;fontFamily=Architects Daughter;fontSource=https%3A%2F%2Ffonts.googleapis.com%2Fcss%3Ffamily%3DArchitects%2BDaughter;" parent="1" vertex="1">
          <mxGeometry x="421" y="269" width="29" height="38" as="geometry" />
        </mxCell>
        <mxCell id="jCmX0eoJcbNPCjecA22x-24" value="&lt;font face=&quot;Tahoma&quot;&gt;0&lt;/font&gt;" style="text;html=1;align=center;verticalAlign=middle;resizable=0;points=[];autosize=1;strokeColor=#b85450;fillColor=#f8cecc;fontSize=20;fontFamily=Architects Daughter;fontSource=https%3A%2F%2Ffonts.googleapis.com%2Fcss%3Ffamily%3DArchitects%2BDaughter;" parent="1" vertex="1">
          <mxGeometry x="421" y="316" width="29" height="38" as="geometry" />
        </mxCell>
        <mxCell id="jCmX0eoJcbNPCjecA22x-25" value="&lt;font face=&quot;Tahoma&quot;&gt;0&lt;/font&gt;" style="text;html=1;align=center;verticalAlign=middle;resizable=0;points=[];autosize=1;strokeColor=#d6b656;fillColor=#fff2cc;fontSize=20;fontFamily=Architects Daughter;fontSource=https%3A%2F%2Ffonts.googleapis.com%2Fcss%3Ffamily%3DArchitects%2BDaughter;" parent="1" vertex="1">
          <mxGeometry x="969" y="269" width="29" height="38" as="geometry" />
        </mxCell>
        <mxCell id="jCmX0eoJcbNPCjecA22x-26" value="&lt;font face=&quot;Tahoma&quot;&gt;0&lt;/font&gt;" style="text;html=1;align=center;verticalAlign=middle;resizable=0;points=[];autosize=1;strokeColor=#b85450;fillColor=#f8cecc;fontSize=20;fontFamily=Architects Daughter;fontSource=https%3A%2F%2Ffonts.googleapis.com%2Fcss%3Ffamily%3DArchitects%2BDaughter;" parent="1" vertex="1">
          <mxGeometry x="969" y="316" width="29" height="38" as="geometry" />
        </mxCell>
        <mxCell id="jCmX0eoJcbNPCjecA22x-27" value="" style="edgeStyle=none;orthogonalLoop=1;jettySize=auto;html=1;rounded=0;fontFamily=Architects Daughter;fontSource=https%3A%2F%2Ffonts.googleapis.com%2Fcss%3Ffamily%3DArchitects%2BDaughter;fontSize=16;startSize=14;endArrow=none;endSize=14;sourcePerimeterSpacing=8;targetPerimeterSpacing=8;curved=1;endFill=0;" parent="1" edge="1">
          <mxGeometry width="140" relative="1" as="geometry">
            <mxPoint x="-205" y="59" as="sourcePoint" />
            <mxPoint x="-205" y="259" as="targetPoint" />
            <Array as="points" />
          </mxGeometry>
        </mxCell>
        <mxCell id="jCmX0eoJcbNPCjecA22x-34" value="" style="edgeStyle=none;orthogonalLoop=1;jettySize=auto;html=1;rounded=0;fontFamily=Architects Daughter;fontSource=https%3A%2F%2Ffonts.googleapis.com%2Fcss%3Ffamily%3DArchitects%2BDaughter;fontSize=16;startSize=14;endArrow=none;endSize=14;sourcePerimeterSpacing=8;targetPerimeterSpacing=8;curved=1;endFill=0;" parent="1" edge="1">
          <mxGeometry width="140" relative="1" as="geometry">
            <mxPoint x="338.47" y="58" as="sourcePoint" />
            <mxPoint x="338.47" y="258" as="targetPoint" />
            <Array as="points" />
          </mxGeometry>
        </mxCell>
        <mxCell id="jCmX0eoJcbNPCjecA22x-40" value="" style="edgeStyle=none;orthogonalLoop=1;jettySize=auto;html=1;rounded=0;fontFamily=Architects Daughter;fontSource=https%3A%2F%2Ffonts.googleapis.com%2Fcss%3Ffamily%3DArchitects%2BDaughter;fontSize=16;startSize=14;endArrow=none;endSize=14;sourcePerimeterSpacing=8;targetPerimeterSpacing=8;curved=1;endFill=0;" parent="1" edge="1">
          <mxGeometry width="140" relative="1" as="geometry">
            <mxPoint x="890" y="58" as="sourcePoint" />
            <mxPoint x="890" y="258" as="targetPoint" />
            <Array as="points" />
          </mxGeometry>
        </mxCell>
        <mxCell id="jCmX0eoJcbNPCjecA22x-43" value="&lt;font face=&quot;Tahoma&quot;&gt;Incoming&lt;br&gt;&lt;/font&gt;" style="text;html=1;align=center;verticalAlign=middle;resizable=0;points=[];autosize=1;strokeColor=#666666;fillColor=#f5f5f5;fontSize=20;fontFamily=Architects Daughter;fontSource=https%3A%2F%2Ffonts.googleapis.com%2Fcss%3Ffamily%3DArchitects%2BDaughter;fontColor=#333333;" parent="1" vertex="1">
          <mxGeometry x="-330" y="55" width="100" height="38" as="geometry" />
        </mxCell>
        <mxCell id="jCmX0eoJcbNPCjecA22x-44" value="&lt;div&gt;&lt;font face=&quot;Tahoma&quot;&gt;Processing&lt;/font&gt;&lt;/div&gt;" style="text;html=1;align=center;verticalAlign=middle;resizable=0;points=[];autosize=1;strokeColor=#666666;fillColor=#f5f5f5;fontSize=20;fontFamily=Architects Daughter;fontSource=https%3A%2F%2Ffonts.googleapis.com%2Fcss%3Ffamily%3DArchitects%2BDaughter;fontColor=#333333;" parent="1" vertex="1">
          <mxGeometry x="-163" y="55" width="111" height="38" as="geometry" />
        </mxCell>
        <mxCell id="jCmX0eoJcbNPCjecA22x-46" value="&lt;font face=&quot;Tahoma&quot;&gt;Incoming&lt;br&gt;&lt;/font&gt;" style="text;html=1;align=center;verticalAlign=middle;resizable=0;points=[];autosize=1;strokeColor=#666666;fillColor=#f5f5f5;fontSize=20;fontFamily=Architects Daughter;fontSource=https%3A%2F%2Ffonts.googleapis.com%2Fcss%3Ffamily%3DArchitects%2BDaughter;fontColor=#333333;" parent="1" vertex="1">
          <mxGeometry x="211" y="59" width="100" height="38" as="geometry" />
        </mxCell>
        <mxCell id="jCmX0eoJcbNPCjecA22x-47" value="&lt;div&gt;&lt;font face=&quot;Tahoma&quot;&gt;Processing&lt;/font&gt;&lt;/div&gt;" style="text;html=1;align=center;verticalAlign=middle;resizable=0;points=[];autosize=1;strokeColor=#666666;fillColor=#f5f5f5;fontSize=20;fontFamily=Architects Daughter;fontSource=https%3A%2F%2Ffonts.googleapis.com%2Fcss%3Ffamily%3DArchitects%2BDaughter;fontColor=#333333;" parent="1" vertex="1">
          <mxGeometry x="378" y="59" width="111" height="38" as="geometry" />
        </mxCell>
        <mxCell id="jCmX0eoJcbNPCjecA22x-49" value="&lt;font face=&quot;Tahoma&quot;&gt;Incoming&lt;br&gt;&lt;/font&gt;" style="text;html=1;align=center;verticalAlign=middle;resizable=0;points=[];autosize=1;strokeColor=#666666;fillColor=#f5f5f5;fontSize=20;fontFamily=Architects Daughter;fontSource=https%3A%2F%2Ffonts.googleapis.com%2Fcss%3Ffamily%3DArchitects%2BDaughter;fontColor=#333333;" parent="1" vertex="1">
          <mxGeometry x="759" y="55" width="100" height="38" as="geometry" />
        </mxCell>
        <mxCell id="jCmX0eoJcbNPCjecA22x-50" value="&lt;div&gt;&lt;font face=&quot;Tahoma&quot;&gt;Processing&lt;/font&gt;&lt;/div&gt;" style="text;html=1;align=center;verticalAlign=middle;resizable=0;points=[];autosize=1;strokeColor=#666666;fillColor=#f5f5f5;fontSize=20;fontFamily=Architects Daughter;fontSource=https%3A%2F%2Ffonts.googleapis.com%2Fcss%3Ffamily%3DArchitects%2BDaughter;fontColor=#333333;" parent="1" vertex="1">
          <mxGeometry x="926" y="55" width="111" height="38" as="geometry" />
        </mxCell>
        <mxCell id="jCmX0eoJcbNPCjecA22x-63" value="" style="edgeStyle=none;orthogonalLoop=1;jettySize=auto;html=1;rounded=0;fontFamily=Architects Daughter;fontSource=https%3A%2F%2Ffonts.googleapis.com%2Fcss%3Ffamily%3DArchitects%2BDaughter;fontSize=16;startSize=14;endArrow=open;endSize=14;sourcePerimeterSpacing=8;targetPerimeterSpacing=8;curved=1;strokeWidth=5;" parent="1" edge="1">
          <mxGeometry width="140" relative="1" as="geometry">
            <mxPoint x="-653" y="428" as="sourcePoint" />
            <mxPoint x="1217" y="428" as="targetPoint" />
            <Array as="points" />
          </mxGeometry>
        </mxCell>
        <mxCell id="jCmX0eoJcbNPCjecA22x-64" value="now" style="text;html=1;align=center;verticalAlign=middle;resizable=0;points=[];autosize=1;strokeColor=none;fillColor=none;fontSize=20;fontFamily=Tahoma;" parent="1" vertex="1">
          <mxGeometry x="1223" y="408" width="55" height="36" as="geometry" />
        </mxCell>
        <mxCell id="jCmX0eoJcbNPCjecA22x-69" value="" style="group;fillColor=default;glass=0;rounded=0;shadow=0;container=0;" parent="1" vertex="1" connectable="0">
          <mxGeometry x="828" y="548" width="80" height="122" as="geometry" />
        </mxCell>
        <mxCell id="jCmX0eoJcbNPCjecA22x-71" value="" style="group;rotation=-180;" parent="1" vertex="1" connectable="0">
          <mxGeometry x="993" y="392" width="46" height="68" as="geometry" />
        </mxCell>
        <mxCell id="jCmX0eoJcbNPCjecA22x-67" value="" style="shape=step;perimeter=stepPerimeter;whiteSpace=wrap;html=1;fixedSize=1;fontFamily=Architects Daughter;fontSource=https%3A%2F%2Ffonts.googleapis.com%2Fcss%3Ffamily%3DArchitects%2BDaughter;size=26.444444444444457;rotation=-270;strokeColor=none;fillColor=#666666;" parent="jCmX0eoJcbNPCjecA22x-71" vertex="1">
          <mxGeometry x="-10" y="12" width="66" height="46" as="geometry" />
        </mxCell>
        <mxCell id="jCmX0eoJcbNPCjecA22x-68" value="" style="shape=step;perimeter=stepPerimeter;whiteSpace=wrap;html=1;fixedSize=1;fontFamily=Architects Daughter;fontSource=https%3A%2F%2Ffonts.googleapis.com%2Fcss%3Ffamily%3DArchitects%2BDaughter;size=-32.000000000000114;rotation=-270;fillColor=#666666;strokeColor=none;" parent="jCmX0eoJcbNPCjecA22x-71" vertex="1">
          <mxGeometry x="4" y="-3" width="39" height="46" as="geometry" />
        </mxCell>
        <mxCell id="jCmX0eoJcbNPCjecA22x-72" value="" style="group;rotation=-180;" parent="1" vertex="1" connectable="0">
          <mxGeometry x="743" y="393" width="46" height="68" as="geometry" />
        </mxCell>
        <mxCell id="jCmX0eoJcbNPCjecA22x-73" value="" style="shape=step;perimeter=stepPerimeter;whiteSpace=wrap;html=1;fixedSize=1;fontFamily=Architects Daughter;fontSource=https%3A%2F%2Ffonts.googleapis.com%2Fcss%3Ffamily%3DArchitects%2BDaughter;size=26.444444444444457;rotation=-270;strokeColor=none;fillColor=#666666;" parent="jCmX0eoJcbNPCjecA22x-72" vertex="1">
          <mxGeometry x="-10" y="12" width="66" height="46" as="geometry" />
        </mxCell>
        <mxCell id="jCmX0eoJcbNPCjecA22x-74" value="" style="shape=step;perimeter=stepPerimeter;whiteSpace=wrap;html=1;fixedSize=1;fontFamily=Architects Daughter;fontSource=https%3A%2F%2Ffonts.googleapis.com%2Fcss%3Ffamily%3DArchitects%2BDaughter;size=-32.000000000000114;rotation=-270;fillColor=#666666;strokeColor=none;" parent="jCmX0eoJcbNPCjecA22x-72" vertex="1">
          <mxGeometry x="4" y="-3" width="39" height="46" as="geometry" />
        </mxCell>
        <mxCell id="jCmX0eoJcbNPCjecA22x-75" value="" style="group;rotation=-180;" parent="1" vertex="1" connectable="0">
          <mxGeometry x="281" y="391" width="46" height="68" as="geometry" />
        </mxCell>
        <mxCell id="jCmX0eoJcbNPCjecA22x-76" value="" style="shape=step;perimeter=stepPerimeter;whiteSpace=wrap;html=1;fixedSize=1;fontFamily=Architects Daughter;fontSource=https%3A%2F%2Ffonts.googleapis.com%2Fcss%3Ffamily%3DArchitects%2BDaughter;size=26.444444444444457;rotation=-270;strokeColor=none;fillColor=#666666;" parent="jCmX0eoJcbNPCjecA22x-75" vertex="1">
          <mxGeometry x="-10" y="12" width="66" height="46" as="geometry" />
        </mxCell>
        <mxCell id="jCmX0eoJcbNPCjecA22x-77" value="" style="shape=step;perimeter=stepPerimeter;whiteSpace=wrap;html=1;fixedSize=1;fontFamily=Architects Daughter;fontSource=https%3A%2F%2Ffonts.googleapis.com%2Fcss%3Ffamily%3DArchitects%2BDaughter;size=-32.000000000000114;rotation=-270;fillColor=#666666;strokeColor=none;" parent="jCmX0eoJcbNPCjecA22x-75" vertex="1">
          <mxGeometry x="4" y="-3" width="39" height="46" as="geometry" />
        </mxCell>
        <mxCell id="jCmX0eoJcbNPCjecA22x-79" value="- 2 min" style="text;html=1;align=center;verticalAlign=middle;whiteSpace=wrap;rounded=0;fontSize=20;fontFamily=Tahoma;" parent="1" vertex="1">
          <mxGeometry x="960.5" y="468" width="111" height="30" as="geometry" />
        </mxCell>
        <mxCell id="jCmX0eoJcbNPCjecA22x-80" value="- 2.5 min" style="text;html=1;align=center;verticalAlign=middle;whiteSpace=wrap;rounded=0;fontSize=20;fontFamily=Tahoma;" parent="1" vertex="1">
          <mxGeometry x="689.5" y="468" width="153" height="30" as="geometry" />
        </mxCell>
        <mxCell id="jCmX0eoJcbNPCjecA22x-81" value="- 4.0 min" style="text;html=1;align=center;verticalAlign=middle;whiteSpace=wrap;rounded=0;fontSize=20;fontFamily=Tahoma;" parent="1" vertex="1">
          <mxGeometry x="227.5" y="468" width="153" height="30" as="geometry" />
        </mxCell>
        <mxCell id="jCmX0eoJcbNPCjecA22x-83" value="" style="rounded=0;whiteSpace=wrap;html=1;fontFamily=Architects Daughter;fontSource=https%3A%2F%2Ffonts.googleapis.com%2Fcss%3Ffamily%3DArchitects%2BDaughter;" parent="1" vertex="1">
          <mxGeometry x="248" y="702" width="489" height="354" as="geometry" />
        </mxCell>
        <mxCell id="jCmX0eoJcbNPCjecA22x-84" value="&lt;div&gt;&lt;font face=&quot;Tahoma&quot;&gt;Station 2&lt;/font&gt;&lt;/div&gt;" style="text;html=1;align=center;verticalAlign=middle;resizable=0;points=[];autosize=1;strokeColor=none;fillColor=none;fontSize=20;fontFamily=Architects Daughter;fontSource=https%3A%2F%2Ffonts.googleapis.com%2Fcss%3Ffamily%3DArchitects%2BDaughter;" parent="1" vertex="1">
          <mxGeometry x="444" y="710" width="97" height="38" as="geometry" />
        </mxCell>
        <mxCell id="jCmX0eoJcbNPCjecA22x-85" value="" style="rounded=0;whiteSpace=wrap;html=1;fontFamily=Architects Daughter;fontSource=https%3A%2F%2Ffonts.googleapis.com%2Fcss%3Ffamily%3DArchitects%2BDaughter;" parent="1" vertex="1">
          <mxGeometry x="-295" y="702" width="489" height="354" as="geometry" />
        </mxCell>
        <mxCell id="jCmX0eoJcbNPCjecA22x-86" value="&lt;font face=&quot;Tahoma&quot;&gt;Station 1&lt;br&gt;&lt;/font&gt;" style="text;html=1;align=center;verticalAlign=middle;resizable=0;points=[];autosize=1;strokeColor=none;fillColor=none;fontSize=20;fontFamily=Architects Daughter;fontSource=https%3A%2F%2Ffonts.googleapis.com%2Fcss%3Ffamily%3DArchitects%2BDaughter;" parent="1" vertex="1">
          <mxGeometry x="-99" y="710" width="97" height="38" as="geometry" />
        </mxCell>
        <mxCell id="jCmX0eoJcbNPCjecA22x-87" value="" style="rounded=0;whiteSpace=wrap;html=1;fontFamily=Architects Daughter;fontSource=https%3A%2F%2Ffonts.googleapis.com%2Fcss%3Ffamily%3DArchitects%2BDaughter;" parent="1" vertex="1">
          <mxGeometry x="796" y="702" width="489" height="354" as="geometry" />
        </mxCell>
        <mxCell id="jCmX0eoJcbNPCjecA22x-88" value="&lt;div&gt;&lt;font face=&quot;Tahoma&quot;&gt;Station 3&lt;/font&gt;&lt;/div&gt;" style="text;html=1;align=center;verticalAlign=middle;resizable=0;points=[];autosize=1;strokeColor=none;fillColor=none;fontSize=20;fontFamily=Architects Daughter;fontSource=https%3A%2F%2Ffonts.googleapis.com%2Fcss%3Ffamily%3DArchitects%2BDaughter;" parent="1" vertex="1">
          <mxGeometry x="992" y="710" width="97" height="38" as="geometry" />
        </mxCell>
        <mxCell id="jCmX0eoJcbNPCjecA22x-89" value="" style="edgeStyle=none;orthogonalLoop=1;jettySize=auto;html=1;rounded=0;fontFamily=Architects Daughter;fontSource=https%3A%2F%2Ffonts.googleapis.com%2Fcss%3Ffamily%3DArchitects%2BDaughter;fontSize=16;startSize=14;endArrow=none;endSize=14;sourcePerimeterSpacing=8;targetPerimeterSpacing=8;curved=1;endFill=0;" parent="1" edge="1">
          <mxGeometry width="140" relative="1" as="geometry">
            <mxPoint x="-750" y="953" as="sourcePoint" />
            <mxPoint x="1370" y="953" as="targetPoint" />
            <Array as="points" />
          </mxGeometry>
        </mxCell>
        <mxCell id="jCmX0eoJcbNPCjecA22x-90" value="&lt;font face=&quot;Tahoma&quot;&gt;Overdue Packages&lt;br&gt;&lt;/font&gt;" style="text;html=1;align=center;verticalAlign=middle;resizable=0;points=[];autosize=1;strokeColor=#d6b656;fillColor=#fff2cc;fontSize=20;fontFamily=Architects Daughter;fontSource=https%3A%2F%2Ffonts.googleapis.com%2Fcss%3Ffamily%3DArchitects%2BDaughter;" parent="1" vertex="1">
          <mxGeometry x="-575" y="962" width="180" height="38" as="geometry" />
        </mxCell>
        <mxCell id="jCmX0eoJcbNPCjecA22x-91" value="&lt;font face=&quot;Tahoma&quot;&gt;Problematic Packages&lt;br&gt;&lt;/font&gt;" style="text;html=1;align=center;verticalAlign=middle;resizable=0;points=[];autosize=1;strokeColor=#b85450;fillColor=#f8cecc;fontSize=20;fontFamily=Architects Daughter;fontSource=https%3A%2F%2Ffonts.googleapis.com%2Fcss%3Ffamily%3DArchitects%2BDaughter;" parent="1" vertex="1">
          <mxGeometry x="-589" y="1009" width="208" height="38" as="geometry" />
        </mxCell>
        <mxCell id="jCmX0eoJcbNPCjecA22x-92" value="&lt;font face=&quot;Tahoma&quot;&gt;0&lt;/font&gt;" style="text;html=1;align=center;verticalAlign=middle;resizable=0;points=[];autosize=1;strokeColor=#d6b656;fillColor=#fff2cc;fontSize=20;fontFamily=Architects Daughter;fontSource=https%3A%2F%2Ffonts.googleapis.com%2Fcss%3Ffamily%3DArchitects%2BDaughter;" parent="1" vertex="1">
          <mxGeometry x="-65" y="962" width="29" height="38" as="geometry" />
        </mxCell>
        <mxCell id="jCmX0eoJcbNPCjecA22x-93" value="&lt;font face=&quot;Tahoma&quot;&gt;0&lt;/font&gt;" style="text;html=1;align=center;verticalAlign=middle;resizable=0;points=[];autosize=1;strokeColor=#b85450;fillColor=#f8cecc;fontSize=20;fontFamily=Architects Daughter;fontSource=https%3A%2F%2Ffonts.googleapis.com%2Fcss%3Ffamily%3DArchitects%2BDaughter;" parent="1" vertex="1">
          <mxGeometry x="-65" y="1009" width="29" height="38" as="geometry" />
        </mxCell>
        <mxCell id="jCmX0eoJcbNPCjecA22x-94" value="&lt;font face=&quot;Tahoma&quot;&gt;2&lt;/font&gt;" style="text;html=1;align=center;verticalAlign=middle;resizable=0;points=[];autosize=1;strokeColor=#d6b656;fillColor=#fff2cc;fontSize=20;fontFamily=Architects Daughter;fontSource=https%3A%2F%2Ffonts.googleapis.com%2Fcss%3Ffamily%3DArchitects%2BDaughter;" parent="1" vertex="1">
          <mxGeometry x="478" y="962" width="29" height="38" as="geometry" />
        </mxCell>
        <mxCell id="jCmX0eoJcbNPCjecA22x-95" value="&lt;font face=&quot;Tahoma&quot;&gt;1&lt;/font&gt;" style="text;html=1;align=center;verticalAlign=middle;resizable=0;points=[];autosize=1;strokeColor=#b85450;fillColor=#f8cecc;fontSize=20;fontFamily=Architects Daughter;fontSource=https%3A%2F%2Ffonts.googleapis.com%2Fcss%3Ffamily%3DArchitects%2BDaughter;" parent="1" vertex="1">
          <mxGeometry x="478" y="1009" width="29" height="38" as="geometry" />
        </mxCell>
        <mxCell id="jCmX0eoJcbNPCjecA22x-96" value="&lt;font face=&quot;Tahoma&quot;&gt;0&lt;/font&gt;" style="text;html=1;align=center;verticalAlign=middle;resizable=0;points=[];autosize=1;strokeColor=#d6b656;fillColor=#fff2cc;fontSize=20;fontFamily=Architects Daughter;fontSource=https%3A%2F%2Ffonts.googleapis.com%2Fcss%3Ffamily%3DArchitects%2BDaughter;" parent="1" vertex="1">
          <mxGeometry x="1026" y="962" width="29" height="38" as="geometry" />
        </mxCell>
        <mxCell id="jCmX0eoJcbNPCjecA22x-97" value="&lt;font face=&quot;Tahoma&quot;&gt;0&lt;/font&gt;" style="text;html=1;align=center;verticalAlign=middle;resizable=0;points=[];autosize=1;strokeColor=#b85450;fillColor=#f8cecc;fontSize=20;fontFamily=Architects Daughter;fontSource=https%3A%2F%2Ffonts.googleapis.com%2Fcss%3Ffamily%3DArchitects%2BDaughter;" parent="1" vertex="1">
          <mxGeometry x="1026" y="1009" width="29" height="38" as="geometry" />
        </mxCell>
        <mxCell id="jCmX0eoJcbNPCjecA22x-98" value="" style="edgeStyle=none;orthogonalLoop=1;jettySize=auto;html=1;rounded=0;fontFamily=Architects Daughter;fontSource=https%3A%2F%2Ffonts.googleapis.com%2Fcss%3Ffamily%3DArchitects%2BDaughter;fontSize=16;startSize=14;endArrow=none;endSize=14;sourcePerimeterSpacing=8;targetPerimeterSpacing=8;curved=1;endFill=0;" parent="1" edge="1">
          <mxGeometry width="140" relative="1" as="geometry">
            <mxPoint x="-148" y="752" as="sourcePoint" />
            <mxPoint x="-148" y="952" as="targetPoint" />
            <Array as="points" />
          </mxGeometry>
        </mxCell>
        <mxCell id="jCmX0eoJcbNPCjecA22x-100" value="" style="edgeStyle=none;orthogonalLoop=1;jettySize=auto;html=1;rounded=0;fontFamily=Architects Daughter;fontSource=https%3A%2F%2Ffonts.googleapis.com%2Fcss%3Ffamily%3DArchitects%2BDaughter;fontSize=16;startSize=14;endArrow=none;endSize=14;sourcePerimeterSpacing=8;targetPerimeterSpacing=8;curved=1;endFill=0;" parent="1" edge="1">
          <mxGeometry width="140" relative="1" as="geometry">
            <mxPoint x="395.47" y="751" as="sourcePoint" />
            <mxPoint x="395.47" y="951" as="targetPoint" />
            <Array as="points" />
          </mxGeometry>
        </mxCell>
        <mxCell id="jCmX0eoJcbNPCjecA22x-102" value="" style="edgeStyle=none;orthogonalLoop=1;jettySize=auto;html=1;rounded=0;fontFamily=Architects Daughter;fontSource=https%3A%2F%2Ffonts.googleapis.com%2Fcss%3Ffamily%3DArchitects%2BDaughter;fontSize=16;startSize=14;endArrow=none;endSize=14;sourcePerimeterSpacing=8;targetPerimeterSpacing=8;curved=1;endFill=0;" parent="1" edge="1">
          <mxGeometry width="140" relative="1" as="geometry">
            <mxPoint x="947" y="751" as="sourcePoint" />
            <mxPoint x="947" y="951" as="targetPoint" />
            <Array as="points" />
          </mxGeometry>
        </mxCell>
        <mxCell id="jCmX0eoJcbNPCjecA22x-104" value="&lt;font face=&quot;Tahoma&quot;&gt;Incoming&lt;br&gt;&lt;/font&gt;" style="text;html=1;align=center;verticalAlign=middle;resizable=0;points=[];autosize=1;strokeColor=#666666;fillColor=#f5f5f5;fontSize=20;fontFamily=Architects Daughter;fontSource=https%3A%2F%2Ffonts.googleapis.com%2Fcss%3Ffamily%3DArchitects%2BDaughter;fontColor=#333333;" parent="1" vertex="1">
          <mxGeometry x="-273" y="748" width="100" height="38" as="geometry" />
        </mxCell>
        <mxCell id="jCmX0eoJcbNPCjecA22x-105" value="&lt;div&gt;&lt;font face=&quot;Tahoma&quot;&gt;Processing&lt;/font&gt;&lt;/div&gt;" style="text;html=1;align=center;verticalAlign=middle;resizable=0;points=[];autosize=1;strokeColor=#666666;fillColor=#f5f5f5;fontSize=20;fontFamily=Architects Daughter;fontSource=https%3A%2F%2Ffonts.googleapis.com%2Fcss%3Ffamily%3DArchitects%2BDaughter;fontColor=#333333;" parent="1" vertex="1">
          <mxGeometry x="-106" y="748" width="111" height="38" as="geometry" />
        </mxCell>
        <mxCell id="jCmX0eoJcbNPCjecA22x-107" value="&lt;font face=&quot;Tahoma&quot;&gt;Incoming&lt;br&gt;&lt;/font&gt;" style="text;html=1;align=center;verticalAlign=middle;resizable=0;points=[];autosize=1;strokeColor=#666666;fillColor=#f5f5f5;fontSize=20;fontFamily=Architects Daughter;fontSource=https%3A%2F%2Ffonts.googleapis.com%2Fcss%3Ffamily%3DArchitects%2BDaughter;fontColor=#333333;" parent="1" vertex="1">
          <mxGeometry x="268" y="752" width="100" height="38" as="geometry" />
        </mxCell>
        <mxCell id="jCmX0eoJcbNPCjecA22x-108" value="&lt;div&gt;&lt;font face=&quot;Tahoma&quot;&gt;Processing&lt;/font&gt;&lt;/div&gt;" style="text;html=1;align=center;verticalAlign=middle;resizable=0;points=[];autosize=1;strokeColor=#666666;fillColor=#f5f5f5;fontSize=20;fontFamily=Architects Daughter;fontSource=https%3A%2F%2Ffonts.googleapis.com%2Fcss%3Ffamily%3DArchitects%2BDaughter;fontColor=#333333;" parent="1" vertex="1">
          <mxGeometry x="435" y="752" width="111" height="38" as="geometry" />
        </mxCell>
        <mxCell id="jCmX0eoJcbNPCjecA22x-110" value="&lt;font face=&quot;Tahoma&quot;&gt;Incoming&lt;br&gt;&lt;/font&gt;" style="text;html=1;align=center;verticalAlign=middle;resizable=0;points=[];autosize=1;strokeColor=#666666;fillColor=#f5f5f5;fontSize=20;fontFamily=Architects Daughter;fontSource=https%3A%2F%2Ffonts.googleapis.com%2Fcss%3Ffamily%3DArchitects%2BDaughter;fontColor=#333333;" parent="1" vertex="1">
          <mxGeometry x="816" y="748" width="100" height="38" as="geometry" />
        </mxCell>
        <mxCell id="jCmX0eoJcbNPCjecA22x-111" value="&lt;div&gt;&lt;font face=&quot;Tahoma&quot;&gt;Processing&lt;/font&gt;&lt;/div&gt;" style="text;html=1;align=center;verticalAlign=middle;resizable=0;points=[];autosize=1;strokeColor=#666666;fillColor=#f5f5f5;fontSize=20;fontFamily=Architects Daughter;fontSource=https%3A%2F%2Ffonts.googleapis.com%2Fcss%3Ffamily%3DArchitects%2BDaughter;fontColor=#333333;" parent="1" vertex="1">
          <mxGeometry x="983" y="748" width="111" height="38" as="geometry" />
        </mxCell>
        <mxCell id="jCmX0eoJcbNPCjecA22x-122" value="" style="edgeStyle=none;orthogonalLoop=1;jettySize=auto;html=1;rounded=0;fontFamily=Architects Daughter;fontSource=https%3A%2F%2Ffonts.googleapis.com%2Fcss%3Ffamily%3DArchitects%2BDaughter;fontSize=16;startSize=14;endArrow=none;endSize=14;sourcePerimeterSpacing=8;targetPerimeterSpacing=8;curved=1;strokeWidth=5;endFill=0;" parent="1" edge="1">
          <mxGeometry width="140" relative="1" as="geometry">
            <mxPoint x="-596" y="1121" as="sourcePoint" />
            <mxPoint x="1274" y="1121" as="targetPoint" />
            <Array as="points" />
          </mxGeometry>
        </mxCell>
        <mxCell id="jCmX0eoJcbNPCjecA22x-123" value="now" style="text;html=1;align=center;verticalAlign=middle;resizable=0;points=[];autosize=1;strokeColor=none;fillColor=none;fontSize=20;fontFamily=Tahoma;" parent="1" vertex="1">
          <mxGeometry x="1280" y="1101" width="55" height="36" as="geometry" />
        </mxCell>
        <mxCell id="jCmX0eoJcbNPCjecA22x-125" value="" style="group;rotation=-180;" parent="1" vertex="1" connectable="0">
          <mxGeometry x="1050" y="1085" width="46" height="68" as="geometry" />
        </mxCell>
        <mxCell id="jCmX0eoJcbNPCjecA22x-126" value="" style="shape=step;perimeter=stepPerimeter;whiteSpace=wrap;html=1;fixedSize=1;fontFamily=Architects Daughter;fontSource=https%3A%2F%2Ffonts.googleapis.com%2Fcss%3Ffamily%3DArchitects%2BDaughter;size=26.444444444444457;rotation=-270;strokeColor=none;fillColor=#666666;" parent="jCmX0eoJcbNPCjecA22x-125" vertex="1">
          <mxGeometry x="-10" y="12" width="66" height="46" as="geometry" />
        </mxCell>
        <mxCell id="jCmX0eoJcbNPCjecA22x-127" value="" style="shape=step;perimeter=stepPerimeter;whiteSpace=wrap;html=1;fixedSize=1;fontFamily=Architects Daughter;fontSource=https%3A%2F%2Ffonts.googleapis.com%2Fcss%3Ffamily%3DArchitects%2BDaughter;size=-32.000000000000114;rotation=-270;fillColor=#666666;strokeColor=none;" parent="jCmX0eoJcbNPCjecA22x-125" vertex="1">
          <mxGeometry x="4" y="-3" width="39" height="46" as="geometry" />
        </mxCell>
        <mxCell id="jCmX0eoJcbNPCjecA22x-128" value="" style="group;rotation=-180;" parent="1" vertex="1" connectable="0">
          <mxGeometry x="800" y="1086" width="46" height="68" as="geometry" />
        </mxCell>
        <mxCell id="jCmX0eoJcbNPCjecA22x-129" value="" style="shape=step;perimeter=stepPerimeter;whiteSpace=wrap;html=1;fixedSize=1;fontFamily=Architects Daughter;fontSource=https%3A%2F%2Ffonts.googleapis.com%2Fcss%3Ffamily%3DArchitects%2BDaughter;size=26.444444444444457;rotation=-270;strokeColor=none;fillColor=#666666;" parent="jCmX0eoJcbNPCjecA22x-128" vertex="1">
          <mxGeometry x="-10" y="12" width="66" height="46" as="geometry" />
        </mxCell>
        <mxCell id="jCmX0eoJcbNPCjecA22x-130" value="" style="shape=step;perimeter=stepPerimeter;whiteSpace=wrap;html=1;fixedSize=1;fontFamily=Architects Daughter;fontSource=https%3A%2F%2Ffonts.googleapis.com%2Fcss%3Ffamily%3DArchitects%2BDaughter;size=-32.000000000000114;rotation=-270;fillColor=#666666;strokeColor=none;" parent="jCmX0eoJcbNPCjecA22x-128" vertex="1">
          <mxGeometry x="4" y="-3" width="39" height="46" as="geometry" />
        </mxCell>
        <mxCell id="jCmX0eoJcbNPCjecA22x-131" value="" style="group;rotation=-180;" parent="1" vertex="1" connectable="0">
          <mxGeometry x="338" y="1084" width="46" height="68" as="geometry" />
        </mxCell>
        <mxCell id="jCmX0eoJcbNPCjecA22x-132" value="" style="shape=step;perimeter=stepPerimeter;whiteSpace=wrap;html=1;fixedSize=1;fontFamily=Architects Daughter;fontSource=https%3A%2F%2Ffonts.googleapis.com%2Fcss%3Ffamily%3DArchitects%2BDaughter;size=26.444444444444457;rotation=-270;strokeColor=none;fillColor=#666666;" parent="jCmX0eoJcbNPCjecA22x-131" vertex="1">
          <mxGeometry x="-10" y="12" width="66" height="46" as="geometry" />
        </mxCell>
        <mxCell id="jCmX0eoJcbNPCjecA22x-133" value="" style="shape=step;perimeter=stepPerimeter;whiteSpace=wrap;html=1;fixedSize=1;fontFamily=Architects Daughter;fontSource=https%3A%2F%2Ffonts.googleapis.com%2Fcss%3Ffamily%3DArchitects%2BDaughter;size=-32.000000000000114;rotation=-270;fillColor=#666666;strokeColor=none;" parent="jCmX0eoJcbNPCjecA22x-131" vertex="1">
          <mxGeometry x="4" y="-3" width="39" height="46" as="geometry" />
        </mxCell>
        <mxCell id="jCmX0eoJcbNPCjecA22x-134" value="- 2 min" style="text;html=1;align=center;verticalAlign=middle;whiteSpace=wrap;rounded=0;fontSize=20;fontFamily=Tahoma;" parent="1" vertex="1">
          <mxGeometry x="1017.5" y="1161" width="111" height="30" as="geometry" />
        </mxCell>
        <mxCell id="jCmX0eoJcbNPCjecA22x-135" value="- 2.5 min" style="text;html=1;align=center;verticalAlign=middle;whiteSpace=wrap;rounded=0;fontSize=20;fontFamily=Tahoma;" parent="1" vertex="1">
          <mxGeometry x="746.5" y="1161" width="153" height="30" as="geometry" />
        </mxCell>
        <mxCell id="jCmX0eoJcbNPCjecA22x-136" value="- 4.0 min" style="text;html=1;align=center;verticalAlign=middle;whiteSpace=wrap;rounded=0;fontSize=20;fontFamily=Tahoma;" parent="1" vertex="1">
          <mxGeometry x="284.5" y="1161" width="153" height="30" as="geometry" />
        </mxCell>
        <mxCell id="jCmX0eoJcbNPCjecA22x-306" value="" style="whiteSpace=wrap;html=1;fontFamily=Architects Daughter;fontSource=https%3A%2F%2Ffonts.googleapis.com%2Fcss%3Ffamily%3DArchitects%2BDaughter;fillColor=#f5f5f5;fontColor=#333333;strokeColor=#666666;movable=0;resizable=0;rotatable=0;deletable=0;editable=0;locked=1;connectable=0;" parent="1" vertex="1">
          <mxGeometry x="-633" y="1363" width="2023" height="547" as="geometry" />
        </mxCell>
        <mxCell id="jCmX0eoJcbNPCjecA22x-307" value="" style="edgeStyle=none;orthogonalLoop=1;jettySize=auto;html=1;rounded=0;fontFamily=Architects Daughter;fontSource=https%3A%2F%2Ffonts.googleapis.com%2Fcss%3Ffamily%3DArchitects%2BDaughter;fontSize=16;startSize=14;endArrow=open;endSize=14;sourcePerimeterSpacing=8;targetPerimeterSpacing=8;curved=1;strokeWidth=5;movable=1;resizable=1;rotatable=1;deletable=1;editable=1;locked=0;connectable=1;" parent="1" edge="1">
          <mxGeometry width="140" relative="1" as="geometry">
            <mxPoint x="-549" y="1809" as="sourcePoint" />
            <mxPoint x="1095" y="1809" as="targetPoint" />
            <Array as="points" />
          </mxGeometry>
        </mxCell>
        <mxCell id="jCmX0eoJcbNPCjecA22x-308" value="" style="rounded=0;whiteSpace=wrap;html=1;fontFamily=Architects Daughter;fontSource=https%3A%2F%2Ffonts.googleapis.com%2Fcss%3Ffamily%3DArchitects%2BDaughter;movable=1;resizable=1;rotatable=1;deletable=1;editable=1;locked=0;connectable=1;strokeWidth=5;" parent="1" vertex="1">
          <mxGeometry x="295" y="1390" width="489" height="354" as="geometry" />
        </mxCell>
        <mxCell id="jCmX0eoJcbNPCjecA22x-309" value="&lt;div&gt;&lt;font face=&quot;Tahoma&quot;&gt;Station 2&lt;/font&gt;&lt;/div&gt;" style="text;html=1;align=center;verticalAlign=middle;resizable=1;points=[];autosize=1;strokeColor=none;fillColor=none;fontSize=20;fontFamily=Architects Daughter;fontSource=https%3A%2F%2Ffonts.googleapis.com%2Fcss%3Ffamily%3DArchitects%2BDaughter;movable=1;rotatable=1;deletable=1;editable=1;locked=0;connectable=1;" parent="1" vertex="1">
          <mxGeometry x="491" y="1398" width="97" height="38" as="geometry" />
        </mxCell>
        <mxCell id="jCmX0eoJcbNPCjecA22x-310" value="" style="rounded=0;whiteSpace=wrap;html=1;fontFamily=Architects Daughter;fontSource=https%3A%2F%2Ffonts.googleapis.com%2Fcss%3Ffamily%3DArchitects%2BDaughter;movable=1;resizable=1;rotatable=1;deletable=1;editable=1;locked=0;connectable=1;" parent="1" vertex="1">
          <mxGeometry x="-248" y="1390" width="489" height="354" as="geometry" />
        </mxCell>
        <mxCell id="jCmX0eoJcbNPCjecA22x-311" value="&lt;font face=&quot;Tahoma&quot;&gt;Station 1&lt;br&gt;&lt;/font&gt;" style="text;html=1;align=center;verticalAlign=middle;resizable=1;points=[];autosize=1;strokeColor=none;fillColor=none;fontSize=20;fontFamily=Architects Daughter;fontSource=https%3A%2F%2Ffonts.googleapis.com%2Fcss%3Ffamily%3DArchitects%2BDaughter;movable=1;rotatable=1;deletable=1;editable=1;locked=0;connectable=1;" parent="1" vertex="1">
          <mxGeometry x="-52" y="1398" width="97" height="38" as="geometry" />
        </mxCell>
        <mxCell id="jCmX0eoJcbNPCjecA22x-312" value="" style="rounded=0;whiteSpace=wrap;html=1;fontFamily=Architects Daughter;fontSource=https%3A%2F%2Ffonts.googleapis.com%2Fcss%3Ffamily%3DArchitects%2BDaughter;movable=1;resizable=1;rotatable=1;deletable=1;editable=1;locked=0;connectable=1;" parent="1" vertex="1">
          <mxGeometry x="843" y="1390" width="489" height="354" as="geometry" />
        </mxCell>
        <mxCell id="jCmX0eoJcbNPCjecA22x-313" value="&lt;div&gt;&lt;font face=&quot;Tahoma&quot;&gt;Station 3&lt;/font&gt;&lt;/div&gt;" style="text;html=1;align=center;verticalAlign=middle;resizable=1;points=[];autosize=1;strokeColor=none;fillColor=none;fontSize=20;fontFamily=Architects Daughter;fontSource=https%3A%2F%2Ffonts.googleapis.com%2Fcss%3Ffamily%3DArchitects%2BDaughter;movable=1;rotatable=1;deletable=1;editable=1;locked=0;connectable=1;" parent="1" vertex="1">
          <mxGeometry x="1039" y="1398" width="97" height="38" as="geometry" />
        </mxCell>
        <mxCell id="jCmX0eoJcbNPCjecA22x-314" value="" style="edgeStyle=none;orthogonalLoop=1;jettySize=auto;html=1;rounded=0;fontFamily=Architects Daughter;fontSource=https%3A%2F%2Ffonts.googleapis.com%2Fcss%3Ffamily%3DArchitects%2BDaughter;fontSize=16;startSize=14;endArrow=none;endSize=14;sourcePerimeterSpacing=8;targetPerimeterSpacing=8;curved=1;endFill=0;movable=1;resizable=1;rotatable=1;deletable=1;editable=1;locked=0;connectable=1;" parent="1" edge="1">
          <mxGeometry width="140" relative="1" as="geometry">
            <mxPoint x="-703" y="1641" as="sourcePoint" />
            <mxPoint x="1417" y="1641" as="targetPoint" />
            <Array as="points" />
          </mxGeometry>
        </mxCell>
        <mxCell id="jCmX0eoJcbNPCjecA22x-315" value="&lt;font face=&quot;Tahoma&quot;&gt;Overdue Packages&lt;br&gt;&lt;/font&gt;" style="text;html=1;align=center;verticalAlign=middle;resizable=1;points=[];autosize=1;strokeColor=#d6b656;fillColor=#fff2cc;fontSize=20;fontFamily=Architects Daughter;fontSource=https%3A%2F%2Ffonts.googleapis.com%2Fcss%3Ffamily%3DArchitects%2BDaughter;movable=1;rotatable=1;deletable=1;editable=1;locked=0;connectable=1;" parent="1" vertex="1">
          <mxGeometry x="-528" y="1650" width="180" height="38" as="geometry" />
        </mxCell>
        <mxCell id="jCmX0eoJcbNPCjecA22x-316" value="&lt;font face=&quot;Tahoma&quot;&gt;Problematic Packages&lt;br&gt;&lt;/font&gt;" style="text;html=1;align=center;verticalAlign=middle;resizable=1;points=[];autosize=1;strokeColor=#b85450;fillColor=#f8cecc;fontSize=20;fontFamily=Architects Daughter;fontSource=https%3A%2F%2Ffonts.googleapis.com%2Fcss%3Ffamily%3DArchitects%2BDaughter;movable=1;rotatable=1;deletable=1;editable=1;locked=0;connectable=1;" parent="1" vertex="1">
          <mxGeometry x="-542" y="1697" width="208" height="38" as="geometry" />
        </mxCell>
        <mxCell id="jCmX0eoJcbNPCjecA22x-317" value="&lt;font face=&quot;Tahoma&quot;&gt;0&lt;/font&gt;" style="text;html=1;align=center;verticalAlign=middle;resizable=1;points=[];autosize=1;strokeColor=#d6b656;fillColor=#fff2cc;fontSize=20;fontFamily=Architects Daughter;fontSource=https%3A%2F%2Ffonts.googleapis.com%2Fcss%3Ffamily%3DArchitects%2BDaughter;movable=1;rotatable=1;deletable=1;editable=1;locked=0;connectable=1;" parent="1" vertex="1">
          <mxGeometry x="-18" y="1650" width="29" height="38" as="geometry" />
        </mxCell>
        <mxCell id="jCmX0eoJcbNPCjecA22x-318" value="&lt;font face=&quot;Tahoma&quot;&gt;0&lt;/font&gt;" style="text;html=1;align=center;verticalAlign=middle;resizable=1;points=[];autosize=1;strokeColor=#b85450;fillColor=#f8cecc;fontSize=20;fontFamily=Architects Daughter;fontSource=https%3A%2F%2Ffonts.googleapis.com%2Fcss%3Ffamily%3DArchitects%2BDaughter;movable=1;rotatable=1;deletable=1;editable=1;locked=0;connectable=1;" parent="1" vertex="1">
          <mxGeometry x="-18" y="1697" width="29" height="38" as="geometry" />
        </mxCell>
        <mxCell id="jCmX0eoJcbNPCjecA22x-319" value="&lt;font face=&quot;Tahoma&quot;&gt;2&lt;/font&gt;" style="text;html=1;align=center;verticalAlign=middle;resizable=1;points=[];autosize=1;strokeColor=#d6b656;fillColor=#fff2cc;fontSize=20;fontFamily=Architects Daughter;fontSource=https%3A%2F%2Ffonts.googleapis.com%2Fcss%3Ffamily%3DArchitects%2BDaughter;movable=1;rotatable=1;deletable=1;editable=1;locked=0;connectable=1;" parent="1" vertex="1">
          <mxGeometry x="525" y="1650" width="29" height="38" as="geometry" />
        </mxCell>
        <mxCell id="jCmX0eoJcbNPCjecA22x-320" value="&lt;font face=&quot;Tahoma&quot;&gt;1&lt;/font&gt;" style="text;html=1;align=center;verticalAlign=middle;resizable=1;points=[];autosize=1;strokeColor=#b85450;fillColor=#f8cecc;fontSize=20;fontFamily=Architects Daughter;fontSource=https%3A%2F%2Ffonts.googleapis.com%2Fcss%3Ffamily%3DArchitects%2BDaughter;movable=1;rotatable=1;deletable=1;editable=1;locked=0;connectable=1;" parent="1" vertex="1">
          <mxGeometry x="525" y="1697" width="29" height="38" as="geometry" />
        </mxCell>
        <mxCell id="jCmX0eoJcbNPCjecA22x-321" value="&lt;font face=&quot;Tahoma&quot;&gt;0&lt;/font&gt;" style="text;html=1;align=center;verticalAlign=middle;resizable=1;points=[];autosize=1;strokeColor=#d6b656;fillColor=#fff2cc;fontSize=20;fontFamily=Architects Daughter;fontSource=https%3A%2F%2Ffonts.googleapis.com%2Fcss%3Ffamily%3DArchitects%2BDaughter;movable=1;rotatable=1;deletable=1;editable=1;locked=0;connectable=1;" parent="1" vertex="1">
          <mxGeometry x="1073" y="1650" width="29" height="38" as="geometry" />
        </mxCell>
        <mxCell id="jCmX0eoJcbNPCjecA22x-322" value="&lt;font face=&quot;Tahoma&quot;&gt;0&lt;/font&gt;" style="text;html=1;align=center;verticalAlign=middle;resizable=1;points=[];autosize=1;strokeColor=#b85450;fillColor=#f8cecc;fontSize=20;fontFamily=Architects Daughter;fontSource=https%3A%2F%2Ffonts.googleapis.com%2Fcss%3Ffamily%3DArchitects%2BDaughter;movable=1;rotatable=1;deletable=1;editable=1;locked=0;connectable=1;" parent="1" vertex="1">
          <mxGeometry x="1073" y="1697" width="29" height="38" as="geometry" />
        </mxCell>
        <mxCell id="jCmX0eoJcbNPCjecA22x-323" value="" style="edgeStyle=none;orthogonalLoop=1;jettySize=auto;html=1;rounded=0;fontFamily=Architects Daughter;fontSource=https%3A%2F%2Ffonts.googleapis.com%2Fcss%3Ffamily%3DArchitects%2BDaughter;fontSize=16;startSize=14;endArrow=none;endSize=14;sourcePerimeterSpacing=8;targetPerimeterSpacing=8;curved=1;endFill=0;movable=1;resizable=1;rotatable=1;deletable=1;editable=1;locked=0;connectable=1;" parent="1" edge="1">
          <mxGeometry width="140" relative="1" as="geometry">
            <mxPoint x="-101" y="1440" as="sourcePoint" />
            <mxPoint x="-101" y="1640" as="targetPoint" />
            <Array as="points" />
          </mxGeometry>
        </mxCell>
        <mxCell id="jCmX0eoJcbNPCjecA22x-325" value="" style="edgeStyle=none;orthogonalLoop=1;jettySize=auto;html=1;rounded=0;fontFamily=Architects Daughter;fontSource=https%3A%2F%2Ffonts.googleapis.com%2Fcss%3Ffamily%3DArchitects%2BDaughter;fontSize=16;startSize=14;endArrow=none;endSize=14;sourcePerimeterSpacing=8;targetPerimeterSpacing=8;curved=1;endFill=0;movable=1;resizable=1;rotatable=1;deletable=1;editable=1;locked=0;connectable=1;" parent="1" edge="1">
          <mxGeometry width="140" relative="1" as="geometry">
            <mxPoint x="442.47" y="1439" as="sourcePoint" />
            <mxPoint x="442.47" y="1639" as="targetPoint" />
            <Array as="points" />
          </mxGeometry>
        </mxCell>
        <mxCell id="jCmX0eoJcbNPCjecA22x-327" value="" style="edgeStyle=none;orthogonalLoop=1;jettySize=auto;html=1;rounded=0;fontFamily=Architects Daughter;fontSource=https%3A%2F%2Ffonts.googleapis.com%2Fcss%3Ffamily%3DArchitects%2BDaughter;fontSize=16;startSize=14;endArrow=none;endSize=14;sourcePerimeterSpacing=8;targetPerimeterSpacing=8;curved=1;endFill=0;movable=1;resizable=1;rotatable=1;deletable=1;editable=1;locked=0;connectable=1;" parent="1" edge="1">
          <mxGeometry width="140" relative="1" as="geometry">
            <mxPoint x="994" y="1439" as="sourcePoint" />
            <mxPoint x="994" y="1639" as="targetPoint" />
            <Array as="points" />
          </mxGeometry>
        </mxCell>
        <mxCell id="jCmX0eoJcbNPCjecA22x-329" value="&lt;font face=&quot;Tahoma&quot;&gt;Incoming&lt;br&gt;&lt;/font&gt;" style="text;html=1;align=center;verticalAlign=middle;resizable=1;points=[];autosize=1;strokeColor=#666666;fillColor=#f5f5f5;fontSize=20;fontFamily=Architects Daughter;fontSource=https%3A%2F%2Ffonts.googleapis.com%2Fcss%3Ffamily%3DArchitects%2BDaughter;fontColor=#333333;movable=1;rotatable=1;deletable=1;editable=1;locked=0;connectable=1;" parent="1" vertex="1">
          <mxGeometry x="-226" y="1436" width="100" height="38" as="geometry" />
        </mxCell>
        <mxCell id="jCmX0eoJcbNPCjecA22x-330" value="&lt;div&gt;&lt;font face=&quot;Tahoma&quot;&gt;Processing&lt;/font&gt;&lt;/div&gt;" style="text;html=1;align=center;verticalAlign=middle;resizable=1;points=[];autosize=1;strokeColor=#666666;fillColor=#f5f5f5;fontSize=20;fontFamily=Architects Daughter;fontSource=https%3A%2F%2Ffonts.googleapis.com%2Fcss%3Ffamily%3DArchitects%2BDaughter;fontColor=#333333;movable=1;rotatable=1;deletable=1;editable=1;locked=0;connectable=1;" parent="1" vertex="1">
          <mxGeometry x="-59" y="1436" width="111" height="38" as="geometry" />
        </mxCell>
        <mxCell id="jCmX0eoJcbNPCjecA22x-332" value="&lt;font face=&quot;Tahoma&quot;&gt;Incoming&lt;br&gt;&lt;/font&gt;" style="text;html=1;align=center;verticalAlign=middle;resizable=1;points=[];autosize=1;strokeColor=#666666;fillColor=#f5f5f5;fontSize=20;fontFamily=Architects Daughter;fontSource=https%3A%2F%2Ffonts.googleapis.com%2Fcss%3Ffamily%3DArchitects%2BDaughter;fontColor=#333333;movable=1;rotatable=1;deletable=1;editable=1;locked=0;connectable=1;" parent="1" vertex="1">
          <mxGeometry x="315" y="1440" width="100" height="38" as="geometry" />
        </mxCell>
        <mxCell id="jCmX0eoJcbNPCjecA22x-333" value="&lt;div&gt;&lt;font face=&quot;Tahoma&quot;&gt;Processing&lt;/font&gt;&lt;/div&gt;" style="text;html=1;align=center;verticalAlign=middle;resizable=1;points=[];autosize=1;strokeColor=#666666;fillColor=#f5f5f5;fontSize=20;fontFamily=Architects Daughter;fontSource=https%3A%2F%2Ffonts.googleapis.com%2Fcss%3Ffamily%3DArchitects%2BDaughter;fontColor=#333333;movable=1;rotatable=1;deletable=1;editable=1;locked=0;connectable=1;" parent="1" vertex="1">
          <mxGeometry x="482" y="1440" width="111" height="38" as="geometry" />
        </mxCell>
        <mxCell id="jCmX0eoJcbNPCjecA22x-335" value="&lt;font face=&quot;Tahoma&quot;&gt;Incoming&lt;br&gt;&lt;/font&gt;" style="text;html=1;align=center;verticalAlign=middle;resizable=1;points=[];autosize=1;strokeColor=#666666;fillColor=#f5f5f5;fontSize=20;fontFamily=Architects Daughter;fontSource=https%3A%2F%2Ffonts.googleapis.com%2Fcss%3Ffamily%3DArchitects%2BDaughter;fontColor=#333333;movable=1;rotatable=1;deletable=1;editable=1;locked=0;connectable=1;" parent="1" vertex="1">
          <mxGeometry x="863" y="1436" width="100" height="38" as="geometry" />
        </mxCell>
        <mxCell id="jCmX0eoJcbNPCjecA22x-336" value="&lt;div&gt;&lt;font face=&quot;Tahoma&quot;&gt;Processing&lt;/font&gt;&lt;/div&gt;" style="text;html=1;align=center;verticalAlign=middle;resizable=1;points=[];autosize=1;strokeColor=#666666;fillColor=#f5f5f5;fontSize=20;fontFamily=Architects Daughter;fontSource=https%3A%2F%2Ffonts.googleapis.com%2Fcss%3Ffamily%3DArchitects%2BDaughter;fontColor=#333333;movable=1;rotatable=1;deletable=1;editable=1;locked=0;connectable=1;" parent="1" vertex="1">
          <mxGeometry x="1030" y="1436" width="111" height="38" as="geometry" />
        </mxCell>
        <mxCell id="jCmX0eoJcbNPCjecA22x-338" value="&lt;font face=&quot;Tahoma&quot;&gt;4&lt;/font&gt;" style="text;html=1;align=center;verticalAlign=middle;resizable=1;points=[];autosize=1;fontSize=20;fontFamily=Architects Daughter;fontSource=https%3A%2F%2Ffonts.googleapis.com%2Fcss%3Ffamily%3DArchitects%2BDaughter;strokeColor=default;movable=1;rotatable=1;deletable=1;editable=1;locked=0;connectable=1;perimeterSpacing=50;strokeWidth=1;rounded=1;" parent="1" vertex="1">
          <mxGeometry x="-206" y="1532" width="59" height="70" as="geometry" />
        </mxCell>
        <mxCell id="jCmX0eoJcbNPCjecA22x-339" value="&lt;font face=&quot;Tahoma&quot;&gt;2&lt;/font&gt;" style="text;html=1;align=center;verticalAlign=middle;resizable=1;points=[];autosize=1;fontSize=20;fontFamily=Architects Daughter;fontSource=https%3A%2F%2Ffonts.googleapis.com%2Fcss%3Ffamily%3DArchitects%2BDaughter;strokeColor=default;movable=1;rotatable=1;deletable=1;editable=1;locked=0;connectable=1;perimeterSpacing=50;strokeWidth=1;rounded=1;" parent="1" vertex="1">
          <mxGeometry x="-31" y="1532" width="59" height="70" as="geometry" />
        </mxCell>
        <mxCell id="jCmX0eoJcbNPCjecA22x-344" value="&lt;font face=&quot;Tahoma&quot;&gt;3&lt;/font&gt;" style="text;html=1;align=center;verticalAlign=middle;resizable=1;points=[];autosize=1;fontSize=20;fontFamily=Architects Daughter;fontSource=https%3A%2F%2Ffonts.googleapis.com%2Fcss%3Ffamily%3DArchitects%2BDaughter;strokeColor=default;movable=1;rotatable=1;deletable=1;editable=1;locked=0;connectable=1;perimeterSpacing=50;strokeWidth=1;rounded=1;" parent="1" vertex="1">
          <mxGeometry x="884" y="1532" width="59" height="70" as="geometry" />
        </mxCell>
        <mxCell id="jCmX0eoJcbNPCjecA22x-345" value="&lt;font face=&quot;Tahoma&quot;&gt;4&lt;/font&gt;" style="text;html=1;align=center;verticalAlign=middle;resizable=1;points=[];autosize=1;fontSize=20;fontFamily=Architects Daughter;fontSource=https%3A%2F%2Ffonts.googleapis.com%2Fcss%3Ffamily%3DArchitects%2BDaughter;strokeColor=default;movable=1;rotatable=1;deletable=1;editable=1;locked=0;connectable=1;perimeterSpacing=50;strokeWidth=1;rounded=1;" parent="1" vertex="1">
          <mxGeometry x="1059" y="1532" width="59" height="70" as="geometry" />
        </mxCell>
        <mxCell id="jCmX0eoJcbNPCjecA22x-347" value="" style="edgeStyle=none;orthogonalLoop=1;jettySize=auto;html=1;rounded=0;fontFamily=Architects Daughter;fontSource=https%3A%2F%2Ffonts.googleapis.com%2Fcss%3Ffamily%3DArchitects%2BDaughter;fontSize=16;startSize=14;endArrow=none;endSize=14;sourcePerimeterSpacing=8;targetPerimeterSpacing=8;curved=1;strokeWidth=5;endFill=0;movable=1;resizable=1;rotatable=1;deletable=1;editable=1;locked=0;connectable=1;" parent="1" edge="1">
          <mxGeometry width="140" relative="1" as="geometry">
            <mxPoint x="-549" y="1809" as="sourcePoint" />
            <mxPoint x="1321" y="1809" as="targetPoint" />
            <Array as="points" />
          </mxGeometry>
        </mxCell>
        <mxCell id="jCmX0eoJcbNPCjecA22x-348" value="now" style="text;html=1;align=center;verticalAlign=middle;resizable=1;points=[];autosize=1;strokeColor=none;fillColor=none;fontSize=20;fontFamily=Tahoma;movable=1;rotatable=1;deletable=1;editable=1;locked=0;connectable=1;" parent="1" vertex="1">
          <mxGeometry x="1327" y="1789" width="55" height="36" as="geometry" />
        </mxCell>
        <mxCell id="jCmX0eoJcbNPCjecA22x-349" value="" style="group;fillColor=default;glass=0;rounded=0;shadow=0;container=0;movable=1;resizable=1;rotatable=1;deletable=1;editable=1;locked=0;connectable=1;" parent="1" vertex="1" connectable="0">
          <mxGeometry x="932" y="1929" width="80" height="122" as="geometry" />
        </mxCell>
        <mxCell id="jCmX0eoJcbNPCjecA22x-350" value="" style="group;rotation=-180;movable=1;resizable=1;rotatable=1;deletable=1;editable=1;locked=0;connectable=1;" parent="1" vertex="1" connectable="0">
          <mxGeometry x="1097" y="1773" width="46" height="68" as="geometry" />
        </mxCell>
        <mxCell id="jCmX0eoJcbNPCjecA22x-351" value="" style="shape=step;perimeter=stepPerimeter;whiteSpace=wrap;html=1;fixedSize=1;fontFamily=Architects Daughter;fontSource=https%3A%2F%2Ffonts.googleapis.com%2Fcss%3Ffamily%3DArchitects%2BDaughter;size=26.444444444444457;rotation=-270;strokeColor=none;fillColor=#666666;" parent="jCmX0eoJcbNPCjecA22x-350" vertex="1">
          <mxGeometry x="-10" y="12" width="66" height="46" as="geometry" />
        </mxCell>
        <mxCell id="jCmX0eoJcbNPCjecA22x-352" value="" style="shape=step;perimeter=stepPerimeter;whiteSpace=wrap;html=1;fixedSize=1;fontFamily=Architects Daughter;fontSource=https%3A%2F%2Ffonts.googleapis.com%2Fcss%3Ffamily%3DArchitects%2BDaughter;size=-32.000000000000114;rotation=-270;fillColor=#666666;strokeColor=none;" parent="jCmX0eoJcbNPCjecA22x-350" vertex="1">
          <mxGeometry x="4" y="-3" width="39" height="46" as="geometry" />
        </mxCell>
        <mxCell id="jCmX0eoJcbNPCjecA22x-353" value="" style="group;rotation=-180;movable=1;resizable=1;rotatable=1;deletable=1;editable=1;locked=0;connectable=1;" parent="1" vertex="1" connectable="0">
          <mxGeometry x="847" y="1774" width="46" height="68" as="geometry" />
        </mxCell>
        <mxCell id="jCmX0eoJcbNPCjecA22x-354" value="" style="shape=step;perimeter=stepPerimeter;whiteSpace=wrap;html=1;fixedSize=1;fontFamily=Architects Daughter;fontSource=https%3A%2F%2Ffonts.googleapis.com%2Fcss%3Ffamily%3DArchitects%2BDaughter;size=26.444444444444457;rotation=-270;strokeColor=none;fillColor=#666666;" parent="jCmX0eoJcbNPCjecA22x-353" vertex="1">
          <mxGeometry x="-10" y="12" width="66" height="46" as="geometry" />
        </mxCell>
        <mxCell id="jCmX0eoJcbNPCjecA22x-355" value="" style="shape=step;perimeter=stepPerimeter;whiteSpace=wrap;html=1;fixedSize=1;fontFamily=Architects Daughter;fontSource=https%3A%2F%2Ffonts.googleapis.com%2Fcss%3Ffamily%3DArchitects%2BDaughter;size=-32.000000000000114;rotation=-270;fillColor=#666666;strokeColor=none;" parent="jCmX0eoJcbNPCjecA22x-353" vertex="1">
          <mxGeometry x="4" y="-3" width="39" height="46" as="geometry" />
        </mxCell>
        <mxCell id="jCmX0eoJcbNPCjecA22x-356" value="" style="group;rotation=-180;movable=1;resizable=1;rotatable=1;deletable=1;editable=1;locked=0;connectable=1;" parent="1" vertex="1" connectable="0">
          <mxGeometry x="385" y="1772" width="46" height="68" as="geometry" />
        </mxCell>
        <mxCell id="jCmX0eoJcbNPCjecA22x-357" value="" style="shape=step;perimeter=stepPerimeter;whiteSpace=wrap;html=1;fixedSize=1;fontFamily=Architects Daughter;fontSource=https%3A%2F%2Ffonts.googleapis.com%2Fcss%3Ffamily%3DArchitects%2BDaughter;size=26.444444444444457;rotation=-270;strokeColor=none;fillColor=#666666;" parent="jCmX0eoJcbNPCjecA22x-356" vertex="1">
          <mxGeometry x="-10" y="12" width="66" height="46" as="geometry" />
        </mxCell>
        <mxCell id="jCmX0eoJcbNPCjecA22x-358" value="" style="shape=step;perimeter=stepPerimeter;whiteSpace=wrap;html=1;fixedSize=1;fontFamily=Architects Daughter;fontSource=https%3A%2F%2Ffonts.googleapis.com%2Fcss%3Ffamily%3DArchitects%2BDaughter;size=-32.000000000000114;rotation=-270;fillColor=#666666;strokeColor=none;" parent="jCmX0eoJcbNPCjecA22x-356" vertex="1">
          <mxGeometry x="4" y="-3" width="39" height="46" as="geometry" />
        </mxCell>
        <mxCell id="jCmX0eoJcbNPCjecA22x-359" value="- 2 min" style="text;html=1;align=center;verticalAlign=middle;whiteSpace=wrap;rounded=0;fontSize=20;fontFamily=Tahoma;movable=1;resizable=1;rotatable=1;deletable=1;editable=1;locked=0;connectable=1;" parent="1" vertex="1">
          <mxGeometry x="1064.5" y="1849" width="111" height="30" as="geometry" />
        </mxCell>
        <mxCell id="jCmX0eoJcbNPCjecA22x-360" value="- 2.5 min" style="text;html=1;align=center;verticalAlign=middle;whiteSpace=wrap;rounded=0;fontSize=20;fontFamily=Tahoma;movable=1;resizable=1;rotatable=1;deletable=1;editable=1;locked=0;connectable=1;" parent="1" vertex="1">
          <mxGeometry x="793.5" y="1849" width="153" height="30" as="geometry" />
        </mxCell>
        <mxCell id="jCmX0eoJcbNPCjecA22x-361" value="- 4.0 min" style="text;html=1;align=center;verticalAlign=middle;whiteSpace=wrap;rounded=0;fontSize=20;fontFamily=Tahoma;movable=1;resizable=1;rotatable=1;deletable=1;editable=1;locked=0;connectable=1;" parent="1" vertex="1">
          <mxGeometry x="331.5" y="1849" width="153" height="30" as="geometry" />
        </mxCell>
        <mxCell id="jCmX0eoJcbNPCjecA22x-364" value="#146" style="rounded=0;whiteSpace=wrap;html=1;fontFamily=Tahoma;fontSize=13;fillColor=#fff2cc;strokeColor=#d6b656;" parent="1" vertex="1">
          <mxGeometry x="317.75" y="1488" width="40" height="40" as="geometry" />
        </mxCell>
        <mxCell id="jCmX0eoJcbNPCjecA22x-365" value="#834" style="rounded=0;whiteSpace=wrap;html=1;fontFamily=Tahoma;fontSize=13;" parent="1" vertex="1">
          <mxGeometry x="372.25" y="1488" width="40" height="40" as="geometry" />
        </mxCell>
        <mxCell id="jCmX0eoJcbNPCjecA22x-366" value="#627" style="rounded=0;whiteSpace=wrap;html=1;fontFamily=Tahoma;fontSize=13;" parent="1" vertex="1">
          <mxGeometry x="317.75" y="1537" width="40" height="40" as="geometry" />
        </mxCell>
        <mxCell id="jCmX0eoJcbNPCjecA22x-367" value="#195" style="rounded=0;whiteSpace=wrap;html=1;fontFamily=Tahoma;fontSize=13;" parent="1" vertex="1">
          <mxGeometry x="372.25" y="1537" width="40" height="40" as="geometry" />
        </mxCell>
        <mxCell id="jCmX0eoJcbNPCjecA22x-368" value="#748" style="rounded=0;whiteSpace=wrap;html=1;fontFamily=Tahoma;fontSize=13;" parent="1" vertex="1">
          <mxGeometry x="317.75" y="1586" width="40" height="40" as="geometry" />
        </mxCell>
        <mxCell id="jCmX0eoJcbNPCjecA22x-369" value="#527" style="rounded=0;whiteSpace=wrap;html=1;fontFamily=Tahoma;fontSize=13;fillColor=#fff2cc;strokeColor=#d6b656;" parent="1" vertex="1">
          <mxGeometry x="372.25" y="1586" width="40" height="40" as="geometry" />
        </mxCell>
        <mxCell id="jCmX0eoJcbNPCjecA22x-370" value="#721" style="rounded=0;whiteSpace=wrap;html=1;fontFamily=Tahoma;fontSize=13;" parent="1" vertex="1">
          <mxGeometry x="492.5" y="1488" width="40" height="40" as="geometry" />
        </mxCell>
        <mxCell id="jCmX0eoJcbNPCjecA22x-371" value="#041" style="rounded=0;whiteSpace=wrap;html=1;fontFamily=Tahoma;fontSize=13;fillColor=#f8cecc;strokeColor=#b85450;" parent="1" vertex="1">
          <mxGeometry x="546.5" y="1488" width="40" height="40" as="geometry" />
        </mxCell>
        <mxCell id="jCmX0eoJcbNPCjecA22x-372" value="#169" style="rounded=0;whiteSpace=wrap;html=1;fontFamily=Tahoma;fontSize=13;" parent="1" vertex="1">
          <mxGeometry x="492.5" y="1537" width="40" height="40" as="geometry" />
        </mxCell>
        <mxCell id="jCmX0eoJcbNPCjecA22x-373" value="#272" style="rounded=0;whiteSpace=wrap;html=1;fontFamily=Tahoma;fontSize=13;" parent="1" vertex="1">
          <mxGeometry x="546.5" y="1537" width="40" height="40" as="geometry" />
        </mxCell>
        <mxCell id="jCmX0eoJcbNPCjecA22x-376" value="&lt;font face=&quot;Tahoma&quot;&gt;4&lt;/font&gt;" style="text;html=1;align=center;verticalAlign=middle;resizable=1;points=[];autosize=1;fontSize=20;fontFamily=Architects Daughter;fontSource=https%3A%2F%2Ffonts.googleapis.com%2Fcss%3Ffamily%3DArchitects%2BDaughter;strokeColor=default;movable=1;rotatable=1;deletable=1;editable=1;locked=0;connectable=1;perimeterSpacing=50;strokeWidth=1;rounded=1;" parent="1" vertex="1">
          <mxGeometry x="-260" y="837" width="59" height="70" as="geometry" />
        </mxCell>
        <mxCell id="jCmX0eoJcbNPCjecA22x-377" value="&lt;font face=&quot;Tahoma&quot;&gt;2&lt;/font&gt;" style="text;html=1;align=center;verticalAlign=middle;resizable=1;points=[];autosize=1;fontSize=20;fontFamily=Architects Daughter;fontSource=https%3A%2F%2Ffonts.googleapis.com%2Fcss%3Ffamily%3DArchitects%2BDaughter;strokeColor=default;movable=1;rotatable=1;deletable=1;editable=1;locked=0;connectable=1;perimeterSpacing=50;strokeWidth=1;rounded=1;" parent="1" vertex="1">
          <mxGeometry x="-85" y="837" width="59" height="70" as="geometry" />
        </mxCell>
        <mxCell id="jCmX0eoJcbNPCjecA22x-379" value="&lt;font face=&quot;Tahoma&quot;&gt;3&lt;/font&gt;" style="text;html=1;align=center;verticalAlign=middle;resizable=1;points=[];autosize=1;fontSize=20;fontFamily=Architects Daughter;fontSource=https%3A%2F%2Ffonts.googleapis.com%2Fcss%3Ffamily%3DArchitects%2BDaughter;strokeColor=default;movable=1;rotatable=1;deletable=1;editable=1;locked=0;connectable=1;perimeterSpacing=50;strokeWidth=1;rounded=1;" parent="1" vertex="1">
          <mxGeometry x="830" y="837" width="59" height="70" as="geometry" />
        </mxCell>
        <mxCell id="jCmX0eoJcbNPCjecA22x-380" value="&lt;font face=&quot;Tahoma&quot;&gt;4&lt;/font&gt;" style="text;html=1;align=center;verticalAlign=middle;resizable=1;points=[];autosize=1;fontSize=20;fontFamily=Architects Daughter;fontSource=https%3A%2F%2Ffonts.googleapis.com%2Fcss%3Ffamily%3DArchitects%2BDaughter;strokeColor=default;movable=1;rotatable=1;deletable=1;editable=1;locked=0;connectable=1;perimeterSpacing=50;strokeWidth=1;rounded=1;" parent="1" vertex="1">
          <mxGeometry x="1005" y="837" width="59" height="70" as="geometry" />
        </mxCell>
        <mxCell id="jCmX0eoJcbNPCjecA22x-383" value="&lt;font face=&quot;Tahoma&quot;&gt;6&lt;/font&gt;" style="text;html=1;align=center;verticalAlign=middle;resizable=1;points=[];autosize=1;fontSize=20;fontFamily=Architects Daughter;fontSource=https%3A%2F%2Ffonts.googleapis.com%2Fcss%3Ffamily%3DArchitects%2BDaughter;strokeColor=#d6b656;movable=1;rotatable=1;deletable=1;editable=1;locked=0;connectable=1;perimeterSpacing=50;strokeWidth=1;rounded=1;fillColor=#fff2cc;" parent="1" vertex="1">
          <mxGeometry x="293" y="837" width="60" height="70" as="geometry" />
        </mxCell>
        <mxCell id="jCmX0eoJcbNPCjecA22x-384" value="&lt;font face=&quot;Tahoma&quot;&gt;4&lt;/font&gt;" style="text;html=1;align=center;verticalAlign=middle;resizable=1;points=[];autosize=1;fontSize=20;fontFamily=Architects Daughter;fontSource=https%3A%2F%2Ffonts.googleapis.com%2Fcss%3Ffamily%3DArchitects%2BDaughter;strokeColor=#b85450;movable=1;rotatable=1;deletable=1;editable=1;locked=0;connectable=1;perimeterSpacing=50;strokeWidth=1;rounded=1;fillColor=#f8cecc;" parent="1" vertex="1">
          <mxGeometry x="462" y="832" width="59" height="70" as="geometry" />
        </mxCell>
        <mxCell id="jCmX0eoJcbNPCjecA22x-386" value="&lt;font face=&quot;Tahoma&quot;&gt;3&lt;/font&gt;" style="text;html=1;align=center;verticalAlign=middle;resizable=1;points=[];autosize=1;fontSize=20;fontFamily=Architects Daughter;fontSource=https%3A%2F%2Ffonts.googleapis.com%2Fcss%3Ffamily%3DArchitects%2BDaughter;strokeColor=default;movable=1;rotatable=1;deletable=1;editable=1;locked=0;connectable=1;perimeterSpacing=50;strokeWidth=1;rounded=1;" parent="1" vertex="1">
          <mxGeometry x="-317.5" y="145" width="60" height="70" as="geometry" />
        </mxCell>
        <mxCell id="jCmX0eoJcbNPCjecA22x-387" value="&lt;font face=&quot;Tahoma&quot;&gt;5&lt;/font&gt;" style="text;html=1;align=center;verticalAlign=middle;resizable=1;points=[];autosize=1;fontSize=20;fontFamily=Architects Daughter;fontSource=https%3A%2F%2Ffonts.googleapis.com%2Fcss%3Ffamily%3DArchitects%2BDaughter;strokeColor=default;movable=1;rotatable=1;deletable=1;editable=1;locked=0;connectable=1;perimeterSpacing=50;strokeWidth=1;rounded=1;" parent="1" vertex="1">
          <mxGeometry x="-142.5" y="145" width="60" height="70" as="geometry" />
        </mxCell>
        <mxCell id="jCmX0eoJcbNPCjecA22x-389" value="&lt;font face=&quot;Tahoma&quot;&gt;1&lt;/font&gt;" style="text;html=1;align=center;verticalAlign=middle;resizable=1;points=[];autosize=1;fontSize=20;fontFamily=Architects Daughter;fontSource=https%3A%2F%2Ffonts.googleapis.com%2Fcss%3Ffamily%3DArchitects%2BDaughter;strokeColor=default;movable=1;rotatable=1;deletable=1;editable=1;locked=0;connectable=1;perimeterSpacing=50;strokeWidth=1;rounded=1;" parent="1" vertex="1">
          <mxGeometry x="772.5" y="145" width="60" height="70" as="geometry" />
        </mxCell>
        <mxCell id="jCmX0eoJcbNPCjecA22x-390" value="&lt;font face=&quot;Tahoma&quot;&gt;3&lt;/font&gt;" style="text;html=1;align=center;verticalAlign=middle;resizable=1;points=[];autosize=1;fontSize=20;fontFamily=Architects Daughter;fontSource=https%3A%2F%2Ffonts.googleapis.com%2Fcss%3Ffamily%3DArchitects%2BDaughter;strokeColor=default;movable=1;rotatable=1;deletable=1;editable=1;locked=0;connectable=1;perimeterSpacing=50;strokeWidth=1;rounded=1;" parent="1" vertex="1">
          <mxGeometry x="947.5" y="145" width="60" height="70" as="geometry" />
        </mxCell>
        <mxCell id="jCmX0eoJcbNPCjecA22x-392" value="&lt;font face=&quot;Tahoma&quot;&gt;1&lt;/font&gt;" style="text;html=1;align=center;verticalAlign=middle;resizable=1;points=[];autosize=1;fontSize=20;fontFamily=Architects Daughter;fontSource=https%3A%2F%2Ffonts.googleapis.com%2Fcss%3Ffamily%3DArchitects%2BDaughter;strokeColor=default;movable=1;rotatable=1;deletable=1;editable=1;locked=0;connectable=1;perimeterSpacing=50;strokeWidth=1;rounded=1;" parent="1" vertex="1">
          <mxGeometry x="231" y="140" width="60" height="70" as="geometry" />
        </mxCell>
        <mxCell id="jCmX0eoJcbNPCjecA22x-393" value="&lt;font face=&quot;Tahoma&quot;&gt;7&lt;/font&gt;" style="text;html=1;align=center;verticalAlign=middle;resizable=1;points=[];autosize=1;fontSize=20;fontFamily=Architects Daughter;fontSource=https%3A%2F%2Ffonts.googleapis.com%2Fcss%3Ffamily%3DArchitects%2BDaughter;strokeColor=default;movable=1;rotatable=1;deletable=1;editable=1;locked=0;connectable=1;perimeterSpacing=50;strokeWidth=1;rounded=1;" parent="1" vertex="1">
          <mxGeometry x="404.5" y="140" width="60" height="70" as="geometry" />
        </mxCell>
        <mxCell id="kuY-8wXpmY8qJi5F1W16-1" value="" style="whiteSpace=wrap;html=1;fontFamily=Architects Daughter;fontSource=https%3A%2F%2Ffonts.googleapis.com%2Fcss%3Ffamily%3DArchitects%2BDaughter;fillColor=#f5f5f5;fontColor=#333333;strokeColor=#666666;movable=0;resizable=0;rotatable=0;deletable=0;editable=0;locked=1;connectable=0;" vertex="1" parent="1">
          <mxGeometry x="-625" y="2051" width="2023" height="547" as="geometry" />
        </mxCell>
        <mxCell id="kuY-8wXpmY8qJi5F1W16-2" value="" style="edgeStyle=none;orthogonalLoop=1;jettySize=auto;html=1;rounded=0;fontFamily=Architects Daughter;fontSource=https%3A%2F%2Ffonts.googleapis.com%2Fcss%3Ffamily%3DArchitects%2BDaughter;fontSize=16;startSize=14;endArrow=open;endSize=14;sourcePerimeterSpacing=8;targetPerimeterSpacing=8;curved=1;strokeWidth=5;movable=1;resizable=1;rotatable=1;deletable=1;editable=1;locked=0;connectable=1;" edge="1" parent="1">
          <mxGeometry width="140" relative="1" as="geometry">
            <mxPoint x="-541" y="2497" as="sourcePoint" />
            <mxPoint x="1103" y="2497" as="targetPoint" />
            <Array as="points" />
          </mxGeometry>
        </mxCell>
        <mxCell id="kuY-8wXpmY8qJi5F1W16-3" value="" style="rounded=0;whiteSpace=wrap;html=1;fontFamily=Architects Daughter;fontSource=https%3A%2F%2Ffonts.googleapis.com%2Fcss%3Ffamily%3DArchitects%2BDaughter;movable=1;resizable=1;rotatable=1;deletable=1;editable=1;locked=0;connectable=1;strokeWidth=5;" vertex="1" parent="1">
          <mxGeometry x="303" y="2078" width="489" height="354" as="geometry" />
        </mxCell>
        <mxCell id="kuY-8wXpmY8qJi5F1W16-4" value="&lt;div&gt;&lt;font face=&quot;Tahoma&quot;&gt;Station 2&lt;/font&gt;&lt;/div&gt;" style="text;html=1;align=center;verticalAlign=middle;resizable=1;points=[];autosize=1;strokeColor=none;fillColor=none;fontSize=20;fontFamily=Architects Daughter;fontSource=https%3A%2F%2Ffonts.googleapis.com%2Fcss%3Ffamily%3DArchitects%2BDaughter;movable=1;rotatable=1;deletable=1;editable=1;locked=0;connectable=1;" vertex="1" parent="1">
          <mxGeometry x="499" y="2086" width="97" height="38" as="geometry" />
        </mxCell>
        <mxCell id="kuY-8wXpmY8qJi5F1W16-5" value="" style="rounded=0;whiteSpace=wrap;html=1;fontFamily=Architects Daughter;fontSource=https%3A%2F%2Ffonts.googleapis.com%2Fcss%3Ffamily%3DArchitects%2BDaughter;movable=1;resizable=1;rotatable=1;deletable=1;editable=1;locked=0;connectable=1;" vertex="1" parent="1">
          <mxGeometry x="-240" y="2078" width="489" height="354" as="geometry" />
        </mxCell>
        <mxCell id="kuY-8wXpmY8qJi5F1W16-6" value="&lt;font face=&quot;Tahoma&quot;&gt;Station 1&lt;br&gt;&lt;/font&gt;" style="text;html=1;align=center;verticalAlign=middle;resizable=1;points=[];autosize=1;strokeColor=none;fillColor=none;fontSize=20;fontFamily=Architects Daughter;fontSource=https%3A%2F%2Ffonts.googleapis.com%2Fcss%3Ffamily%3DArchitects%2BDaughter;movable=1;rotatable=1;deletable=1;editable=1;locked=0;connectable=1;" vertex="1" parent="1">
          <mxGeometry x="-44" y="2086" width="97" height="38" as="geometry" />
        </mxCell>
        <mxCell id="kuY-8wXpmY8qJi5F1W16-7" value="" style="rounded=0;whiteSpace=wrap;html=1;fontFamily=Architects Daughter;fontSource=https%3A%2F%2Ffonts.googleapis.com%2Fcss%3Ffamily%3DArchitects%2BDaughter;movable=1;resizable=1;rotatable=1;deletable=1;editable=1;locked=0;connectable=1;" vertex="1" parent="1">
          <mxGeometry x="851" y="2078" width="489" height="354" as="geometry" />
        </mxCell>
        <mxCell id="kuY-8wXpmY8qJi5F1W16-8" value="&lt;div&gt;&lt;font face=&quot;Tahoma&quot;&gt;Station 3&lt;/font&gt;&lt;/div&gt;" style="text;html=1;align=center;verticalAlign=middle;resizable=1;points=[];autosize=1;strokeColor=none;fillColor=none;fontSize=20;fontFamily=Architects Daughter;fontSource=https%3A%2F%2Ffonts.googleapis.com%2Fcss%3Ffamily%3DArchitects%2BDaughter;movable=1;rotatable=1;deletable=1;editable=1;locked=0;connectable=1;" vertex="1" parent="1">
          <mxGeometry x="1047" y="2086" width="97" height="38" as="geometry" />
        </mxCell>
        <mxCell id="kuY-8wXpmY8qJi5F1W16-9" value="" style="edgeStyle=none;orthogonalLoop=1;jettySize=auto;html=1;rounded=0;fontFamily=Architects Daughter;fontSource=https%3A%2F%2Ffonts.googleapis.com%2Fcss%3Ffamily%3DArchitects%2BDaughter;fontSize=16;startSize=14;endArrow=none;endSize=14;sourcePerimeterSpacing=8;targetPerimeterSpacing=8;curved=1;endFill=0;movable=1;resizable=1;rotatable=1;deletable=1;editable=1;locked=0;connectable=1;" edge="1" parent="1">
          <mxGeometry width="140" relative="1" as="geometry">
            <mxPoint x="-695" y="2329" as="sourcePoint" />
            <mxPoint x="1425" y="2329" as="targetPoint" />
            <Array as="points" />
          </mxGeometry>
        </mxCell>
        <mxCell id="kuY-8wXpmY8qJi5F1W16-10" value="&lt;font face=&quot;Tahoma&quot;&gt;Overdue Packages&lt;br&gt;&lt;/font&gt;" style="text;html=1;align=center;verticalAlign=middle;resizable=1;points=[];autosize=1;strokeColor=#d6b656;fillColor=#fff2cc;fontSize=20;fontFamily=Architects Daughter;fontSource=https%3A%2F%2Ffonts.googleapis.com%2Fcss%3Ffamily%3DArchitects%2BDaughter;movable=1;rotatable=1;deletable=1;editable=1;locked=0;connectable=1;" vertex="1" parent="1">
          <mxGeometry x="-520" y="2338" width="180" height="38" as="geometry" />
        </mxCell>
        <mxCell id="kuY-8wXpmY8qJi5F1W16-11" value="&lt;font face=&quot;Tahoma&quot;&gt;Problematic Packages&lt;br&gt;&lt;/font&gt;" style="text;html=1;align=center;verticalAlign=middle;resizable=1;points=[];autosize=1;strokeColor=#b85450;fillColor=#f8cecc;fontSize=20;fontFamily=Architects Daughter;fontSource=https%3A%2F%2Ffonts.googleapis.com%2Fcss%3Ffamily%3DArchitects%2BDaughter;movable=1;rotatable=1;deletable=1;editable=1;locked=0;connectable=1;" vertex="1" parent="1">
          <mxGeometry x="-534" y="2385" width="208" height="38" as="geometry" />
        </mxCell>
        <mxCell id="kuY-8wXpmY8qJi5F1W16-12" value="&lt;font face=&quot;Tahoma&quot;&gt;0&lt;/font&gt;" style="text;html=1;align=center;verticalAlign=middle;resizable=1;points=[];autosize=1;strokeColor=#d6b656;fillColor=#fff2cc;fontSize=20;fontFamily=Architects Daughter;fontSource=https%3A%2F%2Ffonts.googleapis.com%2Fcss%3Ffamily%3DArchitects%2BDaughter;movable=1;rotatable=1;deletable=1;editable=1;locked=0;connectable=1;" vertex="1" parent="1">
          <mxGeometry x="-10" y="2338" width="29" height="38" as="geometry" />
        </mxCell>
        <mxCell id="kuY-8wXpmY8qJi5F1W16-13" value="&lt;font face=&quot;Tahoma&quot;&gt;0&lt;/font&gt;" style="text;html=1;align=center;verticalAlign=middle;resizable=1;points=[];autosize=1;strokeColor=#b85450;fillColor=#f8cecc;fontSize=20;fontFamily=Architects Daughter;fontSource=https%3A%2F%2Ffonts.googleapis.com%2Fcss%3Ffamily%3DArchitects%2BDaughter;movable=1;rotatable=1;deletable=1;editable=1;locked=0;connectable=1;" vertex="1" parent="1">
          <mxGeometry x="-10" y="2385" width="29" height="38" as="geometry" />
        </mxCell>
        <mxCell id="kuY-8wXpmY8qJi5F1W16-14" value="&lt;font face=&quot;Tahoma&quot;&gt;2&lt;/font&gt;" style="text;html=1;align=center;verticalAlign=middle;resizable=1;points=[];autosize=1;strokeColor=#d6b656;fillColor=#fff2cc;fontSize=20;fontFamily=Architects Daughter;fontSource=https%3A%2F%2Ffonts.googleapis.com%2Fcss%3Ffamily%3DArchitects%2BDaughter;movable=1;rotatable=1;deletable=1;editable=1;locked=0;connectable=1;" vertex="1" parent="1">
          <mxGeometry x="533" y="2338" width="29" height="38" as="geometry" />
        </mxCell>
        <mxCell id="kuY-8wXpmY8qJi5F1W16-15" value="&lt;font face=&quot;Tahoma&quot;&gt;1&lt;/font&gt;" style="text;html=1;align=center;verticalAlign=middle;resizable=1;points=[];autosize=1;strokeColor=#b85450;fillColor=#f8cecc;fontSize=20;fontFamily=Architects Daughter;fontSource=https%3A%2F%2Ffonts.googleapis.com%2Fcss%3Ffamily%3DArchitects%2BDaughter;movable=1;rotatable=1;deletable=1;editable=1;locked=0;connectable=1;" vertex="1" parent="1">
          <mxGeometry x="533" y="2385" width="29" height="38" as="geometry" />
        </mxCell>
        <mxCell id="kuY-8wXpmY8qJi5F1W16-16" value="&lt;font face=&quot;Tahoma&quot;&gt;0&lt;/font&gt;" style="text;html=1;align=center;verticalAlign=middle;resizable=1;points=[];autosize=1;strokeColor=#d6b656;fillColor=#fff2cc;fontSize=20;fontFamily=Architects Daughter;fontSource=https%3A%2F%2Ffonts.googleapis.com%2Fcss%3Ffamily%3DArchitects%2BDaughter;movable=1;rotatable=1;deletable=1;editable=1;locked=0;connectable=1;" vertex="1" parent="1">
          <mxGeometry x="1081" y="2338" width="29" height="38" as="geometry" />
        </mxCell>
        <mxCell id="kuY-8wXpmY8qJi5F1W16-17" value="&lt;font face=&quot;Tahoma&quot;&gt;0&lt;/font&gt;" style="text;html=1;align=center;verticalAlign=middle;resizable=1;points=[];autosize=1;strokeColor=#b85450;fillColor=#f8cecc;fontSize=20;fontFamily=Architects Daughter;fontSource=https%3A%2F%2Ffonts.googleapis.com%2Fcss%3Ffamily%3DArchitects%2BDaughter;movable=1;rotatable=1;deletable=1;editable=1;locked=0;connectable=1;" vertex="1" parent="1">
          <mxGeometry x="1081" y="2385" width="29" height="38" as="geometry" />
        </mxCell>
        <mxCell id="kuY-8wXpmY8qJi5F1W16-18" value="" style="edgeStyle=none;orthogonalLoop=1;jettySize=auto;html=1;rounded=0;fontFamily=Architects Daughter;fontSource=https%3A%2F%2Ffonts.googleapis.com%2Fcss%3Ffamily%3DArchitects%2BDaughter;fontSize=16;startSize=14;endArrow=none;endSize=14;sourcePerimeterSpacing=8;targetPerimeterSpacing=8;curved=1;endFill=0;movable=1;resizable=1;rotatable=1;deletable=1;editable=1;locked=0;connectable=1;" edge="1" parent="1">
          <mxGeometry width="140" relative="1" as="geometry">
            <mxPoint x="-93" y="2128" as="sourcePoint" />
            <mxPoint x="-93" y="2328" as="targetPoint" />
            <Array as="points" />
          </mxGeometry>
        </mxCell>
        <mxCell id="kuY-8wXpmY8qJi5F1W16-20" value="" style="edgeStyle=none;orthogonalLoop=1;jettySize=auto;html=1;rounded=0;fontFamily=Architects Daughter;fontSource=https%3A%2F%2Ffonts.googleapis.com%2Fcss%3Ffamily%3DArchitects%2BDaughter;fontSize=16;startSize=14;endArrow=none;endSize=14;sourcePerimeterSpacing=8;targetPerimeterSpacing=8;curved=1;endFill=0;movable=1;resizable=1;rotatable=1;deletable=1;editable=1;locked=0;connectable=1;" edge="1" parent="1">
          <mxGeometry width="140" relative="1" as="geometry">
            <mxPoint x="450.47" y="2127" as="sourcePoint" />
            <mxPoint x="450.47" y="2327" as="targetPoint" />
            <Array as="points" />
          </mxGeometry>
        </mxCell>
        <mxCell id="kuY-8wXpmY8qJi5F1W16-22" value="" style="edgeStyle=none;orthogonalLoop=1;jettySize=auto;html=1;rounded=0;fontFamily=Architects Daughter;fontSource=https%3A%2F%2Ffonts.googleapis.com%2Fcss%3Ffamily%3DArchitects%2BDaughter;fontSize=16;startSize=14;endArrow=none;endSize=14;sourcePerimeterSpacing=8;targetPerimeterSpacing=8;curved=1;endFill=0;movable=1;resizable=1;rotatable=1;deletable=1;editable=1;locked=0;connectable=1;" edge="1" parent="1">
          <mxGeometry width="140" relative="1" as="geometry">
            <mxPoint x="1002" y="2127" as="sourcePoint" />
            <mxPoint x="1002" y="2327" as="targetPoint" />
            <Array as="points" />
          </mxGeometry>
        </mxCell>
        <mxCell id="kuY-8wXpmY8qJi5F1W16-24" value="&lt;font face=&quot;Tahoma&quot;&gt;Incoming&lt;br&gt;&lt;/font&gt;" style="text;html=1;align=center;verticalAlign=middle;resizable=1;points=[];autosize=1;strokeColor=#666666;fillColor=#f5f5f5;fontSize=20;fontFamily=Architects Daughter;fontSource=https%3A%2F%2Ffonts.googleapis.com%2Fcss%3Ffamily%3DArchitects%2BDaughter;fontColor=#333333;movable=1;rotatable=1;deletable=1;editable=1;locked=0;connectable=1;" vertex="1" parent="1">
          <mxGeometry x="-218" y="2124" width="100" height="38" as="geometry" />
        </mxCell>
        <mxCell id="kuY-8wXpmY8qJi5F1W16-25" value="&lt;div&gt;&lt;font face=&quot;Tahoma&quot;&gt;Processing&lt;/font&gt;&lt;/div&gt;" style="text;html=1;align=center;verticalAlign=middle;resizable=1;points=[];autosize=1;strokeColor=#666666;fillColor=#f5f5f5;fontSize=20;fontFamily=Architects Daughter;fontSource=https%3A%2F%2Ffonts.googleapis.com%2Fcss%3Ffamily%3DArchitects%2BDaughter;fontColor=#333333;movable=1;rotatable=1;deletable=1;editable=1;locked=0;connectable=1;" vertex="1" parent="1">
          <mxGeometry x="-51" y="2124" width="111" height="38" as="geometry" />
        </mxCell>
        <mxCell id="kuY-8wXpmY8qJi5F1W16-27" value="&lt;font face=&quot;Tahoma&quot;&gt;Incoming&lt;br&gt;&lt;/font&gt;" style="text;html=1;align=center;verticalAlign=middle;resizable=1;points=[];autosize=1;strokeColor=#666666;fillColor=#f5f5f5;fontSize=20;fontFamily=Architects Daughter;fontSource=https%3A%2F%2Ffonts.googleapis.com%2Fcss%3Ffamily%3DArchitects%2BDaughter;fontColor=#333333;movable=1;rotatable=1;deletable=1;editable=1;locked=0;connectable=1;" vertex="1" parent="1">
          <mxGeometry x="323" y="2128" width="100" height="38" as="geometry" />
        </mxCell>
        <mxCell id="kuY-8wXpmY8qJi5F1W16-28" value="&lt;div&gt;&lt;font face=&quot;Tahoma&quot;&gt;Processing&lt;/font&gt;&lt;/div&gt;" style="text;html=1;align=center;verticalAlign=middle;resizable=1;points=[];autosize=1;strokeColor=#666666;fillColor=#f5f5f5;fontSize=20;fontFamily=Architects Daughter;fontSource=https%3A%2F%2Ffonts.googleapis.com%2Fcss%3Ffamily%3DArchitects%2BDaughter;fontColor=#333333;movable=1;rotatable=1;deletable=1;editable=1;locked=0;connectable=1;" vertex="1" parent="1">
          <mxGeometry x="490" y="2128" width="111" height="38" as="geometry" />
        </mxCell>
        <mxCell id="kuY-8wXpmY8qJi5F1W16-30" value="&lt;font face=&quot;Tahoma&quot;&gt;Incoming&lt;br&gt;&lt;/font&gt;" style="text;html=1;align=center;verticalAlign=middle;resizable=1;points=[];autosize=1;strokeColor=#666666;fillColor=#f5f5f5;fontSize=20;fontFamily=Architects Daughter;fontSource=https%3A%2F%2Ffonts.googleapis.com%2Fcss%3Ffamily%3DArchitects%2BDaughter;fontColor=#333333;movable=1;rotatable=1;deletable=1;editable=1;locked=0;connectable=1;" vertex="1" parent="1">
          <mxGeometry x="871" y="2124" width="100" height="38" as="geometry" />
        </mxCell>
        <mxCell id="kuY-8wXpmY8qJi5F1W16-31" value="&lt;div&gt;&lt;font face=&quot;Tahoma&quot;&gt;Processing&lt;/font&gt;&lt;/div&gt;" style="text;html=1;align=center;verticalAlign=middle;resizable=1;points=[];autosize=1;strokeColor=#666666;fillColor=#f5f5f5;fontSize=20;fontFamily=Architects Daughter;fontSource=https%3A%2F%2Ffonts.googleapis.com%2Fcss%3Ffamily%3DArchitects%2BDaughter;fontColor=#333333;movable=1;rotatable=1;deletable=1;editable=1;locked=0;connectable=1;" vertex="1" parent="1">
          <mxGeometry x="1038" y="2124" width="111" height="38" as="geometry" />
        </mxCell>
        <mxCell id="kuY-8wXpmY8qJi5F1W16-33" value="&lt;font face=&quot;Tahoma&quot;&gt;4&lt;/font&gt;" style="text;html=1;align=center;verticalAlign=middle;resizable=1;points=[];autosize=1;fontSize=20;fontFamily=Architects Daughter;fontSource=https%3A%2F%2Ffonts.googleapis.com%2Fcss%3Ffamily%3DArchitects%2BDaughter;strokeColor=default;movable=1;rotatable=1;deletable=1;editable=1;locked=0;connectable=1;perimeterSpacing=50;strokeWidth=1;rounded=1;" vertex="1" parent="1">
          <mxGeometry x="-198" y="2220" width="59" height="70" as="geometry" />
        </mxCell>
        <mxCell id="kuY-8wXpmY8qJi5F1W16-34" value="&lt;font face=&quot;Tahoma&quot;&gt;2&lt;/font&gt;" style="text;html=1;align=center;verticalAlign=middle;resizable=1;points=[];autosize=1;fontSize=20;fontFamily=Architects Daughter;fontSource=https%3A%2F%2Ffonts.googleapis.com%2Fcss%3Ffamily%3DArchitects%2BDaughter;strokeColor=default;movable=1;rotatable=1;deletable=1;editable=1;locked=0;connectable=1;perimeterSpacing=50;strokeWidth=1;rounded=1;" vertex="1" parent="1">
          <mxGeometry x="-23" y="2220" width="59" height="70" as="geometry" />
        </mxCell>
        <mxCell id="kuY-8wXpmY8qJi5F1W16-36" value="&lt;font face=&quot;Tahoma&quot;&gt;3&lt;/font&gt;" style="text;html=1;align=center;verticalAlign=middle;resizable=1;points=[];autosize=1;fontSize=20;fontFamily=Architects Daughter;fontSource=https%3A%2F%2Ffonts.googleapis.com%2Fcss%3Ffamily%3DArchitects%2BDaughter;strokeColor=default;movable=1;rotatable=1;deletable=1;editable=1;locked=0;connectable=1;perimeterSpacing=50;strokeWidth=1;rounded=1;" vertex="1" parent="1">
          <mxGeometry x="892" y="2220" width="59" height="70" as="geometry" />
        </mxCell>
        <mxCell id="kuY-8wXpmY8qJi5F1W16-37" value="&lt;font face=&quot;Tahoma&quot;&gt;4&lt;/font&gt;" style="text;html=1;align=center;verticalAlign=middle;resizable=1;points=[];autosize=1;fontSize=20;fontFamily=Architects Daughter;fontSource=https%3A%2F%2Ffonts.googleapis.com%2Fcss%3Ffamily%3DArchitects%2BDaughter;strokeColor=default;movable=1;rotatable=1;deletable=1;editable=1;locked=0;connectable=1;perimeterSpacing=50;strokeWidth=1;rounded=1;" vertex="1" parent="1">
          <mxGeometry x="1067" y="2220" width="59" height="70" as="geometry" />
        </mxCell>
        <mxCell id="kuY-8wXpmY8qJi5F1W16-39" value="" style="edgeStyle=none;orthogonalLoop=1;jettySize=auto;html=1;rounded=0;fontFamily=Architects Daughter;fontSource=https%3A%2F%2Ffonts.googleapis.com%2Fcss%3Ffamily%3DArchitects%2BDaughter;fontSize=16;startSize=14;endArrow=none;endSize=14;sourcePerimeterSpacing=8;targetPerimeterSpacing=8;curved=1;strokeWidth=5;endFill=0;movable=1;resizable=1;rotatable=1;deletable=1;editable=1;locked=0;connectable=1;" edge="1" parent="1">
          <mxGeometry width="140" relative="1" as="geometry">
            <mxPoint x="-541" y="2497" as="sourcePoint" />
            <mxPoint x="1329" y="2497" as="targetPoint" />
            <Array as="points" />
          </mxGeometry>
        </mxCell>
        <mxCell id="kuY-8wXpmY8qJi5F1W16-40" value="now" style="text;html=1;align=center;verticalAlign=middle;resizable=1;points=[];autosize=1;strokeColor=none;fillColor=none;fontSize=20;fontFamily=Tahoma;movable=1;rotatable=1;deletable=1;editable=1;locked=0;connectable=1;" vertex="1" parent="1">
          <mxGeometry x="1335" y="2477" width="55" height="36" as="geometry" />
        </mxCell>
        <mxCell id="kuY-8wXpmY8qJi5F1W16-41" value="" style="group;rotation=-180;movable=1;resizable=1;rotatable=1;deletable=1;editable=1;locked=0;connectable=1;" vertex="1" connectable="0" parent="1">
          <mxGeometry x="1105" y="2461" width="46" height="68" as="geometry" />
        </mxCell>
        <mxCell id="kuY-8wXpmY8qJi5F1W16-42" value="" style="shape=step;perimeter=stepPerimeter;whiteSpace=wrap;html=1;fixedSize=1;fontFamily=Architects Daughter;fontSource=https%3A%2F%2Ffonts.googleapis.com%2Fcss%3Ffamily%3DArchitects%2BDaughter;size=26.444444444444457;rotation=-270;strokeColor=none;fillColor=#666666;" vertex="1" parent="kuY-8wXpmY8qJi5F1W16-41">
          <mxGeometry x="-10" y="12" width="66" height="46" as="geometry" />
        </mxCell>
        <mxCell id="kuY-8wXpmY8qJi5F1W16-43" value="" style="shape=step;perimeter=stepPerimeter;whiteSpace=wrap;html=1;fixedSize=1;fontFamily=Architects Daughter;fontSource=https%3A%2F%2Ffonts.googleapis.com%2Fcss%3Ffamily%3DArchitects%2BDaughter;size=-32.000000000000114;rotation=-270;fillColor=#666666;strokeColor=none;" vertex="1" parent="kuY-8wXpmY8qJi5F1W16-41">
          <mxGeometry x="4" y="-3" width="39" height="46" as="geometry" />
        </mxCell>
        <mxCell id="kuY-8wXpmY8qJi5F1W16-44" value="" style="group;rotation=-180;movable=1;resizable=1;rotatable=1;deletable=1;editable=1;locked=0;connectable=1;" vertex="1" connectable="0" parent="1">
          <mxGeometry x="855" y="2462" width="46" height="68" as="geometry" />
        </mxCell>
        <mxCell id="kuY-8wXpmY8qJi5F1W16-45" value="" style="shape=step;perimeter=stepPerimeter;whiteSpace=wrap;html=1;fixedSize=1;fontFamily=Architects Daughter;fontSource=https%3A%2F%2Ffonts.googleapis.com%2Fcss%3Ffamily%3DArchitects%2BDaughter;size=26.444444444444457;rotation=-270;strokeColor=none;fillColor=#666666;" vertex="1" parent="kuY-8wXpmY8qJi5F1W16-44">
          <mxGeometry x="-10" y="12" width="66" height="46" as="geometry" />
        </mxCell>
        <mxCell id="kuY-8wXpmY8qJi5F1W16-46" value="" style="shape=step;perimeter=stepPerimeter;whiteSpace=wrap;html=1;fixedSize=1;fontFamily=Architects Daughter;fontSource=https%3A%2F%2Ffonts.googleapis.com%2Fcss%3Ffamily%3DArchitects%2BDaughter;size=-32.000000000000114;rotation=-270;fillColor=#666666;strokeColor=none;" vertex="1" parent="kuY-8wXpmY8qJi5F1W16-44">
          <mxGeometry x="4" y="-3" width="39" height="46" as="geometry" />
        </mxCell>
        <mxCell id="kuY-8wXpmY8qJi5F1W16-47" value="" style="group;rotation=-180;movable=1;resizable=1;rotatable=1;deletable=1;editable=1;locked=0;connectable=1;" vertex="1" connectable="0" parent="1">
          <mxGeometry x="393" y="2460" width="46" height="68" as="geometry" />
        </mxCell>
        <mxCell id="kuY-8wXpmY8qJi5F1W16-48" value="" style="shape=step;perimeter=stepPerimeter;whiteSpace=wrap;html=1;fixedSize=1;fontFamily=Architects Daughter;fontSource=https%3A%2F%2Ffonts.googleapis.com%2Fcss%3Ffamily%3DArchitects%2BDaughter;size=26.444444444444457;rotation=-270;strokeColor=none;fillColor=#666666;" vertex="1" parent="kuY-8wXpmY8qJi5F1W16-47">
          <mxGeometry x="-10" y="12" width="66" height="46" as="geometry" />
        </mxCell>
        <mxCell id="kuY-8wXpmY8qJi5F1W16-49" value="" style="shape=step;perimeter=stepPerimeter;whiteSpace=wrap;html=1;fixedSize=1;fontFamily=Architects Daughter;fontSource=https%3A%2F%2Ffonts.googleapis.com%2Fcss%3Ffamily%3DArchitects%2BDaughter;size=-32.000000000000114;rotation=-270;fillColor=#666666;strokeColor=none;" vertex="1" parent="kuY-8wXpmY8qJi5F1W16-47">
          <mxGeometry x="4" y="-3" width="39" height="46" as="geometry" />
        </mxCell>
        <mxCell id="kuY-8wXpmY8qJi5F1W16-50" value="- 2 min" style="text;html=1;align=center;verticalAlign=middle;whiteSpace=wrap;rounded=0;fontSize=20;fontFamily=Tahoma;movable=1;resizable=1;rotatable=1;deletable=1;editable=1;locked=0;connectable=1;" vertex="1" parent="1">
          <mxGeometry x="1072.5" y="2537" width="111" height="30" as="geometry" />
        </mxCell>
        <mxCell id="kuY-8wXpmY8qJi5F1W16-51" value="- 2.5 min" style="text;html=1;align=center;verticalAlign=middle;whiteSpace=wrap;rounded=0;fontSize=20;fontFamily=Tahoma;movable=1;resizable=1;rotatable=1;deletable=1;editable=1;locked=0;connectable=1;" vertex="1" parent="1">
          <mxGeometry x="801.5" y="2537" width="153" height="30" as="geometry" />
        </mxCell>
        <mxCell id="kuY-8wXpmY8qJi5F1W16-52" value="- 4.0 min" style="text;html=1;align=center;verticalAlign=middle;whiteSpace=wrap;rounded=0;fontSize=20;fontFamily=Tahoma;movable=1;resizable=1;rotatable=1;deletable=1;editable=1;locked=0;connectable=1;" vertex="1" parent="1">
          <mxGeometry x="339.5" y="2537" width="153" height="30" as="geometry" />
        </mxCell>
        <mxCell id="kuY-8wXpmY8qJi5F1W16-53" value="#146" style="rounded=0;whiteSpace=wrap;html=1;fontFamily=Tahoma;fontSize=13;fillColor=#fff2cc;strokeColor=#d6b656;" vertex="1" parent="1">
          <mxGeometry x="325.75" y="2176" width="40" height="40" as="geometry" />
        </mxCell>
        <mxCell id="kuY-8wXpmY8qJi5F1W16-54" value="#834" style="rounded=0;whiteSpace=wrap;html=1;fontFamily=Tahoma;fontSize=13;strokeWidth=1;" vertex="1" parent="1">
          <mxGeometry x="380.25" y="2176" width="40" height="40" as="geometry" />
        </mxCell>
        <mxCell id="kuY-8wXpmY8qJi5F1W16-55" value="#627" style="rounded=0;whiteSpace=wrap;html=1;fontFamily=Tahoma;fontSize=13;" vertex="1" parent="1">
          <mxGeometry x="325.75" y="2225" width="40" height="40" as="geometry" />
        </mxCell>
        <mxCell id="kuY-8wXpmY8qJi5F1W16-56" value="#195" style="rounded=0;whiteSpace=wrap;html=1;fontFamily=Tahoma;fontSize=13;" vertex="1" parent="1">
          <mxGeometry x="380.25" y="2225" width="40" height="40" as="geometry" />
        </mxCell>
        <mxCell id="kuY-8wXpmY8qJi5F1W16-57" value="#748" style="rounded=0;whiteSpace=wrap;html=1;fontFamily=Tahoma;fontSize=13;" vertex="1" parent="1">
          <mxGeometry x="325.75" y="2274" width="40" height="40" as="geometry" />
        </mxCell>
        <mxCell id="kuY-8wXpmY8qJi5F1W16-58" value="#527" style="rounded=0;whiteSpace=wrap;html=1;fontFamily=Tahoma;fontSize=13;fillColor=#fff2cc;strokeColor=#d6b656;" vertex="1" parent="1">
          <mxGeometry x="380.25" y="2274" width="40" height="40" as="geometry" />
        </mxCell>
        <mxCell id="kuY-8wXpmY8qJi5F1W16-59" value="#721" style="rounded=0;whiteSpace=wrap;html=1;fontFamily=Tahoma;fontSize=13;" vertex="1" parent="1">
          <mxGeometry x="500.5" y="2176" width="40" height="40" as="geometry" />
        </mxCell>
        <mxCell id="kuY-8wXpmY8qJi5F1W16-60" value="#041" style="rounded=0;whiteSpace=wrap;html=1;fontFamily=Tahoma;fontSize=13;fillColor=#f8cecc;strokeColor=#000000;strokeWidth=5;" vertex="1" parent="1">
          <mxGeometry x="554.5" y="2176" width="40" height="40" as="geometry" />
        </mxCell>
        <mxCell id="kuY-8wXpmY8qJi5F1W16-61" value="#169" style="rounded=0;whiteSpace=wrap;html=1;fontFamily=Tahoma;fontSize=13;" vertex="1" parent="1">
          <mxGeometry x="500.5" y="2225" width="40" height="40" as="geometry" />
        </mxCell>
        <mxCell id="kuY-8wXpmY8qJi5F1W16-62" value="#272" style="rounded=0;whiteSpace=wrap;html=1;fontFamily=Tahoma;fontSize=13;" vertex="1" parent="1">
          <mxGeometry x="554.5" y="2225" width="40" height="40" as="geometry" />
        </mxCell>
        <mxCell id="kuY-8wXpmY8qJi5F1W16-64" value="" style="rounded=0;whiteSpace=wrap;html=1;fillColor=#f5f5f5;fontColor=#333333;strokeColor=#666666;strokeWidth=4;" vertex="1" parent="1">
          <mxGeometry x="525" y="2262" width="454.5" height="514" as="geometry" />
        </mxCell>
        <mxCell id="kuY-8wXpmY8qJi5F1W16-71" value="~0:00:20" style="whiteSpace=wrap;html=1;" vertex="1" parent="1">
          <mxGeometry x="722" y="2087.5" width="61" height="22.5" as="geometry" />
        </mxCell>
        <mxCell id="kuY-8wXpmY8qJi5F1W16-72" value="~00:01:40" style="whiteSpace=wrap;html=1;" vertex="1" parent="1">
          <mxGeometry x="178" y="2086" width="61" height="22.5" as="geometry" />
        </mxCell>
        <mxCell id="kuY-8wXpmY8qJi5F1W16-73" value="~00:04.50" style="whiteSpace=wrap;html=1;" vertex="1" parent="1">
          <mxGeometry x="1274" y="2086" width="61" height="22.5" as="geometry" />
        </mxCell>
        <mxCell id="kuY-8wXpmY8qJi5F1W16-77" value="&lt;h1 style=&quot;margin-top: 0px;&quot;&gt;Order id: #041&lt;/h1&gt;&lt;p&gt;pallet_id: §1552&lt;br&gt;&lt;span style=&quot;background-color: initial;&quot;&gt;total_time: 4min 16s&lt;br&gt;&lt;/span&gt;&lt;span style=&quot;background-color: initial;&quot;&gt;needed_stations: 1,2,3,4&lt;/span&gt;&lt;/p&gt;" style="text;html=1;whiteSpace=wrap;overflow=hidden;rounded=0;" vertex="1" parent="1">
          <mxGeometry x="546" y="2282" width="180" height="120" as="geometry" />
        </mxCell>
        <mxCell id="kuY-8wXpmY8qJi5F1W16-79" value="~0:00:20" style="whiteSpace=wrap;html=1;" vertex="1" parent="1">
          <mxGeometry x="714" y="1399.5" width="61" height="22.5" as="geometry" />
        </mxCell>
        <mxCell id="kuY-8wXpmY8qJi5F1W16-80" value="~00:01:40" style="whiteSpace=wrap;html=1;" vertex="1" parent="1">
          <mxGeometry x="170" y="1398" width="61" height="22.5" as="geometry" />
        </mxCell>
        <mxCell id="kuY-8wXpmY8qJi5F1W16-81" value="~00:04.50" style="whiteSpace=wrap;html=1;" vertex="1" parent="1">
          <mxGeometry x="1266" y="1398" width="61" height="22.5" as="geometry" />
        </mxCell>
        <mxCell id="kuY-8wXpmY8qJi5F1W16-83" value="~0:00:20" style="whiteSpace=wrap;html=1;" vertex="1" parent="1">
          <mxGeometry x="667" y="711.5" width="61" height="22.5" as="geometry" />
        </mxCell>
        <mxCell id="kuY-8wXpmY8qJi5F1W16-84" value="~00:01:40" style="whiteSpace=wrap;html=1;" vertex="1" parent="1">
          <mxGeometry x="123" y="710" width="61" height="22.5" as="geometry" />
        </mxCell>
        <mxCell id="kuY-8wXpmY8qJi5F1W16-85" value="~00:04.50" style="whiteSpace=wrap;html=1;" vertex="1" parent="1">
          <mxGeometry x="1219" y="710" width="61" height="22.5" as="geometry" />
        </mxCell>
        <mxCell id="kuY-8wXpmY8qJi5F1W16-86" value="~0:00:20" style="whiteSpace=wrap;html=1;" vertex="1" parent="1">
          <mxGeometry x="610" y="16.5" width="61" height="22.5" as="geometry" />
        </mxCell>
        <mxCell id="kuY-8wXpmY8qJi5F1W16-87" value="~00:01:40" style="whiteSpace=wrap;html=1;" vertex="1" parent="1">
          <mxGeometry x="66" y="15" width="61" height="22.5" as="geometry" />
        </mxCell>
        <mxCell id="kuY-8wXpmY8qJi5F1W16-88" value="~00:04.50" style="whiteSpace=wrap;html=1;" vertex="1" parent="1">
          <mxGeometry x="1162" y="15" width="61" height="22.5" as="geometry" />
        </mxCell>
        <mxCell id="kuY-8wXpmY8qJi5F1W16-91" value="" style="rounded=0;whiteSpace=wrap;html=1;align=left;" vertex="1" parent="1">
          <mxGeometry x="545" y="2389" width="415" height="140" as="geometry" />
        </mxCell>
        <mxCell id="kuY-8wXpmY8qJi5F1W16-89" value="&lt;div&gt;&lt;span style=&quot;background-color: initial;&quot;&gt;Time:&lt;/span&gt;&lt;br&gt;&lt;/div&gt;&lt;div&gt;avg_station_time: 0:01:40&lt;/div&gt;&lt;div&gt;ingoing_station: 12:44:25&lt;/div&gt;&lt;div&gt;ingoing_station_expected: -&lt;/div&gt;&lt;div&gt;outgoing_station: 12:45:34&lt;/div&gt;&lt;div&gt;outgoing_station_expected: 12:46:05&lt;/div&gt;" style="rounded=0;whiteSpace=wrap;html=1;align=left;fillColor=#f5f5f5;fontColor=#333333;strokeColor=#666666;" vertex="1" parent="1">
          <mxGeometry x="549.5" y="2412" width="222" height="110" as="geometry" />
        </mxCell>
        <mxCell id="kuY-8wXpmY8qJi5F1W16-90" value="&lt;div&gt;&lt;span style=&quot;background-color: initial;&quot;&gt;Failures:&lt;/span&gt;&lt;br&gt;&lt;/div&gt;&lt;div&gt;manufacturing_fault: -&lt;/div&gt;&lt;div&gt;exceeding_time: -&lt;/div&gt;&lt;div style=&quot;&quot;&gt;got_missing: - (&quot;expecting in station &amp;gt; X hours&quot;)&lt;/div&gt;" style="rounded=0;whiteSpace=wrap;html=1;align=left;fillColor=#f5f5f5;fontColor=#333333;strokeColor=#666666;" vertex="1" parent="1">
          <mxGeometry x="782" y="2412" width="173" height="110" as="geometry" />
        </mxCell>
        <mxCell id="kuY-8wXpmY8qJi5F1W16-92" value="Station 1" style="text;html=1;align=left;verticalAlign=middle;whiteSpace=wrap;rounded=0;" vertex="1" parent="1">
          <mxGeometry x="549.5" y="2389" width="140.5" height="23" as="geometry" />
        </mxCell>
        <mxCell id="kuY-8wXpmY8qJi5F1W16-93" value="" style="rounded=0;whiteSpace=wrap;html=1;align=left;" vertex="1" parent="1">
          <mxGeometry x="544.5" y="2538" width="415" height="140" as="geometry" />
        </mxCell>
        <mxCell id="kuY-8wXpmY8qJi5F1W16-94" value="&lt;div&gt;&lt;span style=&quot;background-color: initial;&quot;&gt;Time:&lt;/span&gt;&lt;br&gt;&lt;/div&gt;&lt;div&gt;avg_station_time: 0:00:20&lt;/div&gt;&lt;div&gt;ingoing_station: 12:45:34&lt;/div&gt;&lt;div&gt;ingoing_station_expected: 12:46:05&lt;/div&gt;&lt;div&gt;outgoing_station: -&lt;/div&gt;&lt;div&gt;outgoing_station_expected: 12:45:54&lt;/div&gt;" style="rounded=0;whiteSpace=wrap;html=1;align=left;fillColor=#f5f5f5;fontColor=#333333;strokeColor=#666666;" vertex="1" parent="1">
          <mxGeometry x="549" y="2561" width="222" height="110" as="geometry" />
        </mxCell>
        <mxCell id="kuY-8wXpmY8qJi5F1W16-95" value="&lt;div&gt;&lt;span style=&quot;background-color: initial;&quot;&gt;Failures:&lt;/span&gt;&lt;br&gt;&lt;/div&gt;&lt;div&gt;manufacturing_fault: YES&lt;/div&gt;&lt;div&gt;exceeding_time: -&lt;/div&gt;&lt;div style=&quot;&quot;&gt;got_missing: - (&quot;expecting in station &amp;gt; X hours&quot;)&lt;/div&gt;" style="rounded=0;whiteSpace=wrap;html=1;align=left;fillColor=#f8cecc;strokeColor=#b85450;" vertex="1" parent="1">
          <mxGeometry x="781.5" y="2561" width="173" height="110" as="geometry" />
        </mxCell>
        <mxCell id="kuY-8wXpmY8qJi5F1W16-96" value="Station 2" style="text;html=1;align=left;verticalAlign=middle;whiteSpace=wrap;rounded=0;fillColor=#f8cecc;strokeColor=#b85450;" vertex="1" parent="1">
          <mxGeometry x="549" y="2538" width="140.5" height="23" as="geometry" />
        </mxCell>
        <mxCell id="kuY-8wXpmY8qJi5F1W16-97" value="" style="rounded=0;whiteSpace=wrap;html=1;align=left;" vertex="1" parent="1">
          <mxGeometry x="545" y="2688" width="415" height="22" as="geometry" />
        </mxCell>
        <mxCell id="kuY-8wXpmY8qJi5F1W16-100" value="Station 3" style="text;html=1;align=left;verticalAlign=middle;whiteSpace=wrap;rounded=0;" vertex="1" parent="1">
          <mxGeometry x="549.5" y="2688" width="140.5" height="23" as="geometry" />
        </mxCell>
        <mxCell id="kuY-8wXpmY8qJi5F1W16-105" value="" style="group" vertex="1" connectable="0" parent="1">
          <mxGeometry x="545" y="2721" width="415" height="24" as="geometry" />
        </mxCell>
        <mxCell id="kuY-8wXpmY8qJi5F1W16-101" value="" style="rounded=0;whiteSpace=wrap;html=1;align=left;" vertex="1" parent="kuY-8wXpmY8qJi5F1W16-105">
          <mxGeometry width="415" height="24" as="geometry" />
        </mxCell>
        <mxCell id="kuY-8wXpmY8qJi5F1W16-104" value="Station 4" style="text;html=1;align=left;verticalAlign=middle;whiteSpace=wrap;rounded=0;" vertex="1" parent="kuY-8wXpmY8qJi5F1W16-105">
          <mxGeometry x="4.5" width="140.5" height="23" as="geometry" />
        </mxCell>
      </root>
    </mxGraphModel>
  </diagram>
</mxfile>
